<svg xmlns="http://www.w3.org/2000/svg" width="500" height="500" viewBox="0 0 260 260" shape-rendering="geometricPrecision" image-rendering="optimizeQuality" fill-rule="evenodd" clip-rule="evenodd"><path onclick="top.selectObj('0')" fill="transparent" d="M0 0h260v260H0z"/>
<path d="M83.065 98.628c-.149 1.798-1.727 3.134-3.524 2.985-1.798-.149-3.134-1.726-2.985-3.523.149-1.798 1.726-3.134 3.524-2.986 1.798.149 3.134 1.727 2.985 3.524zm43.077-37.814c-.962 2.058-3.473 3.032-6.209 2.647-.579 2.702-2.357 4.724-4.62 4.921-2.264.196-4.364-1.491-5.398-4.053-2.629.85-5.27.321-6.572-1.541-1.302-1.863-.891-4.524.811-6.701-2.051-1.851-2.913-4.403-1.951-6.461.138-.294.307-.566.504-.815h1.783c-.522.333-.934.78-1.192 1.332-.866 1.853.294 4.278 2.628 5.798-2.038 1.899-2.764 4.486-1.592 6.163 1.172 1.676 3.851 1.884 6.334.623.626 2.713 2.504 4.636 4.541 4.459 2.038-.177 3.557-2.394 3.707-5.175 2.663.816 5.267.15 6.133-1.703l.001.001c.866-1.853-.294-4.277-2.628-5.797 2.038-1.9 2.764-4.487 1.592-6.164-1.172-1.677-3.851-1.885-6.335-.623-.626-2.713-2.504-4.636-4.541-4.46-2.038.177-3.559 2.394-3.707 5.175-1.868-.572-3.706-.415-4.936.368h-1.786c1.181-1.493 3.359-2.16 5.703-1.83.579-2.702 2.357-4.724 4.62-4.921 2.264-.196 4.364 1.491 5.398 4.053 2.629-.85 5.27-.321 6.571 1.541 1.302 1.863.891 4.524-.811 6.701 2.051 1.852 2.913 4.403 1.951 6.462h.001zm-37.639-4.501c1.883-1.975 2.585-4.853 1.765-7.502h-1.343c1.029 2.705.085 5.786-2.291 7.448 2.477 1.979 3.139 5.543 1.426 8.304-1.712 2.761-5.199 3.75-8.073 2.409-.475 3.136-3.23 5.491-6.478 5.388-3.248-.102-5.848-2.627-6.124-5.786-2.953 1.156-6.37-.052-7.904-2.916-1.536-2.864-.648-6.379 1.949-8.197-2.477-1.979-3.139-5.541-1.426-8.304 1.713-2.76 5.2-3.75 8.074-2.409.475-3.135 3.23-5.491 6.478-5.388 3.248.103 5.848 2.628 6.124 5.787l-.001-.002c2.953-1.156 6.37.053 7.905 2.917.131.245.243.494.339.746h1.345c-.143-.459-.33-.912-.566-1.351-1.595-2.977-4.884-4.463-8.038-3.907-.902-3.074-3.694-5.359-7.07-5.466-3.375-.107-6.307 1.998-7.403 5.007-3.112-.753-6.489.521-8.269 3.39-1.78 2.869-1.423 6.461.635 8.915-2.21 2.318-2.793 5.879-1.198 8.856 1.594 2.977 4.883 4.463 8.037 3.907.903 3.073 3.695 5.359 7.07 5.466 3.375.106 6.307-1.998 7.402-5.007 3.113.754 6.49-.521 8.269-3.39 1.781-2.869 1.423-6.461-.635-8.914l.001-.001zM25.035 132.32c-5.543-.584-9.564-5.551-8.979-11.094.584-5.544 5.551-9.563 11.094-8.979 4.625.487 8.19 4.026 8.904 8.406h-6.269c-.567-1.276-1.781-2.223-3.269-2.379-2.217-.233-4.204 1.375-4.438 3.592-.233 2.217 1.376 4.203 3.593 4.437 2.217.233 4.203-1.374 4.437-3.591.077-.728-.044-1.431-.321-2.056h6.267c.141.869.171 1.769.074 2.685-.584 5.543-5.55 9.563-11.093 8.979zm133.961-78.174c2.242-.923 5.555 1.962 7.401 6.445 1.845 4.482 1.526 8.864-.715 9.787s-5.555-1.963-7.401-6.445c-1.847-4.482-1.526-8.864.715-9.787zM118.598.526c-.077-.172-.149-.346-.216-.52h2.602c.729 1.435 1.779 2.612 3.023 3.481.097-.917.258-1.812.476-2.681-.252-.246-.488-.513-.705-.799h3.424c-.41 1.183-.693 2.431-.831 3.73-.963 9.144 5.668 17.337 14.812 18.301 9.144.963 17.337-5.669 18.3-14.811.266-2.523-.048-4.973-.831-7.22h6.503c-.37 2.021-1.575 3.71-3.214 4.744.033.896.005 1.806-.092 2.723 2.993-1.27 5.246-4.041 5.714-7.467h2.395c-.349 3.202-1.941 5.97-4.245 7.873.607.767 1.129 1.623 1.545 2.557.73 1.641 1.057 3.359 1.026 5.044h-2.377c.031-1.36-.231-2.749-.82-4.074-.729-1.639-1.865-2.97-3.236-3.928h.001c-.097.917-.259 1.812-.478 2.681.632.615 1.16 1.358 1.541 2.213 1.602 3.6-.019 7.816-3.619 9.419-2.078.924-4.36.775-6.228-.208-.766.485-1.569.914-2.401 1.286 2.67 2.011 6.324 2.551 9.595 1.096 3.473-1.546 5.563-4.917 5.645-8.481h2.377c-.083 4.473-2.699 8.712-7.057 10.651-2.96 1.317-6.17 1.327-8.984.278-.361.91-.84 1.789-1.442 2.617-.31.427-.644.827-.997 1.2h-3.771c1.085-.642 2.06-1.51 2.849-2.595 1.054-1.451 1.639-3.099 1.783-4.764h-.002c-.825.369-1.681.679-2.56.928-.218.854-.597 1.681-1.146 2.437-2.317 3.187-6.779 3.893-9.966 1.576-1.838-1.336-2.851-3.386-2.934-5.492-.808-.427-1.581-.909-2.313-1.442-.406 3.319.952 6.753 3.849 8.858 3.163 2.299 7.268 2.366 10.434.497h3.773c-4.047 4.265-10.726 4.973-15.609 1.423-2.621-1.905-4.234-4.681-4.733-7.641-.968.142-1.97.167-2.987.06-4.794-.505-8.622-3.794-10.046-8.091h2.543c1.312 3.068 4.201 5.354 7.755 
5.729 1.783.188 3.503-.13 5.017-.838-.736-.536-1.431-1.123-2.08-1.756-.849.24-1.757.326-2.688.228-3.919-.413-6.76-3.925-6.348-7.843.239-2.261 1.508-4.164 3.293-5.289-.032-.897-.004-1.805.091-2.723-3.077 1.306-5.374 4.201-5.748 7.763-.177 1.669.091 3.284.707 4.725h-2.543c-.515-1.555-.715-3.242-.533-4.977.339-3.221 1.936-6.007 4.251-7.919-.607-.767-1.129-1.622-1.545-2.557l.001-.002zM.005 32.969c.521.127 1.037.286 1.54.473 2.179-5.515 7.827-9.136 14.012-8.484 6.183.651 10.953 5.368 11.936 11.215 1.101-.163 2.24-.191 3.398-.068 7.437.783 12.831 7.447 12.047 14.884-.388 3.669-2.206 6.84-4.841 9.018.692.873 1.286 1.847 1.76 2.911 3.04 6.832-.035 14.835-6.867 17.875-3.371 1.5-7.026 1.51-10.23.317-.41 1.036-.956 2.037-1.641 2.98-4.397 6.049-12.865 7.388-18.914 2.991-.821-.596-1.555-1.268-2.199-1.998v-5.196c.715 1.94 1.993 3.697 3.791 5.004 4.838 3.518 11.614 2.446 15.131-2.392 1.2-1.651 1.866-3.529 2.03-5.424-.941.421-1.915.773-2.917 1.057-.247.972-.679 1.914-1.304 2.776-2.637 3.629-7.718 4.432-11.348 1.794-2.093-1.521-3.246-3.855-3.341-6.254-.706-.372-1.387-.782-2.042-1.226v-3.388c2.788 2.331 6.275 3.888 10.16 4.297 10.412 1.096 19.742-6.454 20.839-16.866 1.097-10.411-6.454-19.741-16.866-20.838-5.309-.56-10.335 1.13-14.133 4.3v-4.068c.204.087.406.183.602.286.873-.551 1.787-1.04 2.735-1.462-1.008-.759-2.14-1.334-3.337-1.703v-2.808l-.001-.003zm70.046 115.084c-2.357-1.572-5.569-1.167-7.454 1.04-1.884 2.207-1.781 5.444.14 7.525-2.539 1.255-3.796 4.239-2.827 6.975.969 2.736 3.824 4.264 6.587 3.641-.183 2.827 1.773 5.407 4.628 5.936 2.854.529 5.605-1.18 6.447-3.884 2.357 1.571 5.569 1.167 7.454-1.04 1.884-2.207 1.781-5.444-.14-7.525.849-.42 1.555-1.033 2.082-1.765h-6.355c-.014.316-.049.635-.108.956-.684 3.696-4.236 6.138-7.932 5.453-3.697-.685-6.138-4.237-5.453-7.933.684-3.696 4.236-6.136 7.932-5.451 3.375.624 5.703 3.639 5.561 6.971h6.357c1.047-1.458 1.387-3.387.743-5.206-.969-2.736-3.824-4.264-6.587-3.641.183-2.827-1.773-5.407-4.628-5.936-2.855-.529-5.605 1.179-6.447 3.883v.001zM99.115.007c-3.564 7.387-10.44 11.555-16.101 9.446-.048-.017-.094-.037-.141-.056.009.05.019.1.028.15 1.092 6.475-5.373 12.964-14.44 14.492-9.067 1.528-17.301-2.483-18.392-8.959-.009-.05-.015-.1-.023-.15-.039.033-.076.067-.115.099-5.062 4.184-13.914 1.829-19.771-5.259-2.528-3.059-4.084-6.502-4.629-9.762h2.383c.543 2.728 1.918 5.633 4.08 8.248 5.019 6.075 12.372 8.288 16.422 4.94 1.387-1.145 2.205-2.794 2.482-4.711h3.463c-1.559 1.89-2.31 4.053-1.948 6.203.874 5.181 7.881 8.319 15.653 7.01 7.772-1.31 13.363-6.572 12.49-11.753-.472-2.806-2.745-5.012-5.963-6.237v-.001c-2.643 1.712-5.67 2.925-8.972 3.482-3.302.557-6.559.403-9.617-.349-.616.516-1.166 1.066-1.64 1.641h-3.465c.16-1.115.138-2.321-.064-3.572-2.432-1.247-4.637-2.906-6.513-4.901h3.442c4.65 3.97 10.96 5.93 17.461 4.834 3.97-.669 7.499-2.393 10.35-4.834h3.436c-.056.06-.113.121-.17.18.596 3.394 2.335 6.043 5.002 7.037 4.256 1.586 9.482-1.563 12.598-7.217h2.673l.001-.001zm50.298 136.755c-.324 6.357-4.267 11.323-8.808 11.092-.035-.002-.07-.005-.105-.007.017.031.034.061.049.093 2.07 4.048-.845 9.678-6.513 12.577-5.667 2.898-11.94 1.965-14.01-2.083-.016-.031-.031-.063-.046-.094-.019.03-.036.06-.055.089-2.471 3.817-8.806 4.107-14.149.647-5.343-3.459-7.671-9.356-5.2-13.173.019-.03.038-.058.058-.087-.035-.002-.07-.002-.105-.003-4.209-.215-7.454-4.821-7.647-10.557h1.647c.173 4.863 2.742 8.743 6.085 8.914 1.968.1 3.799-1.107 5.11-3.1v-.001c-.69-1.856-1.041-3.827-1.035-5.813h1.646c-.018 4.878 2.369 9.662 6.767 12.509 6.871 4.446 16.046 2.483 20.493-4.387 1.627-2.514 2.394-5.336 2.379-8.122h1.647c.012 2.491-.54 5.008-1.699 7.351 1.101 2.117 2.8 3.504 4.768 3.604 3.633.185 6.803-4.082 7.08-9.531.278-5.448-2.442-10.016-6.074-10.2-1.968-.101-3.8 1.107-5.11 3.1v-.001c.673 1.813 1.024 3.736 1.035 5.674h-1.647c-.029-4.829-2.411-9.548-6.766-12.367-6.871-4.447-16.046-2.484-20.493 4.387-1.599 2.47-2.369 5.24-2.38 7.98h-1.646c.009-2.446.562-4.912 1.699-7.211-1.101-2.117-2.801-3.504-4.769-3.604-3.633-.185-6.802 4.081-7.08 9.53-.022.434-.025.863-.01 1.285h-1.647c-.015-.451-.012-.907.012-1.37.323-6.358 4.267-11.323 8.808-11.092.035.002.07.005.105.007-.016-.031-.033-.061-.049-.093-2.07-4.047.846-9.678 6.514-12.577 5.667-2.898 11.939-1.966 14.009 2.083.016.031.031.063.046.094.019-.029.036-.059.056-.089 2.471-3.817 8.806-4.107 14.149-.648 5.344 3.459 7.672 9.358 5.201 13.175-.019.028-.039.057-.058.086l.105.003c4.541.231 7.959 5.573 7.635 11.93h-.002zM34.032 173.47c2.216 4.706.259 10.552-4.423 14.804 3.909 4.971 4.868 11.06 1.9 15.333-2.968 4.272-9.008 5.499-15.032 3.572-2.351 5.871-7.146 9.747-12.33 9.313-1.483-.124-2.877-.592-4.142-1.34v-3.386c1.259 1.131 2.744 1.837 4.372 1.973 4.666.39 8.953-4.023 10.367-10.24 5.693 2.871 11.826 2.377 14.497-1.468 2.67-3.845.992-9.763-3.684-14.096 5.332-3.495 7.97-9.053 5.976-13.288-1.994-4.236-7.959-5.743-14.05-3.859-.361-6.365-3.854-11.429-8.52-11.819-3.588-.3-6.952 2.24-8.958 6.258v-4.876c2.495-2.819 5.756-4.421 9.188-4.134 5.184.434 9.267 5.052 10.61 11.233 6.259-.9 12.013 1.315 14.229 6.021v-.001zm95.609 16.722c1.661 0 3.007 2.693 3.007 6.014 0 3.322-1.347 6.015-3.007 6.015-1.661 0-3.007-2.693-3.007-6.015 0-3.321 1.347-6.014 3.007-6.014zm-11.258 69.806c-2.295-5.881.419-12.585 6.247-15.178 2.961-1.317 6.171-1.327 8.985-.278 1.913-4.843 6.875-8.024 12.306-7.451 5.43.572 9.619 4.715 10.482 9.849.967-.143 1.967-.168 2.984-.06 6.531.687 11.267 6.54 10.58 13.072l-.005.046h-2.396c.013-.098.025-.197.036-.296.55-5.224-3.239-9.906-8.464-10.457-1.783-.188-3.502.13-5.016.837.736.536 1.432 1.124 2.079 1.756.849-.24 1.757-.326 2.688-.227 3.919.413 6.761 3.923 6.348 7.842-.02.184-.046.365-.079.545h-6.503c-2.056-5.895-7.359-10.383-13.98-11.081-7.845-.827-14.989 3.937-17.47 11.081h-3.425c-.325-.429-.606-.901-.834-1.414-1.602-3.6.018-7.816 3.618-9.418 2.078-.924 4.36-.776 6.228.207.767-.483 1.569-.913 2.402-1.284-2.671-2.011-6.325-2.551-9.595-1.096-4.8 2.136-6.96 7.759-4.825 12.558.067.152.138.3.213.448h-2.602l-.002-.001zM93.176 217.69c5.857 7.088 6.5 16.225 1.438 20.409-.039.032-.079.063-.119.094.048.017.096.033.143.05 6.155 2.293 8.541 11.135 5.331 19.752-.257.691-.543 1.359-.854 2.003h-2.673c.488-.886.925-1.833 1.298-2.834 2.751-7.384.991-14.858-3.933-16.693-2.668-.994-5.717-.127-8.388 2.05.344 6.619-2.099 12.877-6.407 17.477h-3.436c5.518-4.726 8.493-12.144 7.197-19.83-1.965-11.657-13.007-19.514-24.664-17.55-11.656 1.965-19.513 13.008-17.549 24.664.869 5.156 3.515 9.568 7.203 12.715h-3.442c-2.506-2.667-4.421-5.935-5.49-9.625-3.237-1.181-6.401-1-8.596.813-2.307 1.906-3.044 5.204-2.324 8.812h-2.383c-.718-4.291.316-8.268 3.193-10.646.039-.032.079-.063.119-.094-.048-.017-.096-.033-.143-.051-5.284-1.969-7.79-8.768-6.361-16.106h2.427c-1.418 6.383.469 12.28 4.767 13.882 2.668.993 5.716.127 8.387-2.05-.348-6.706 2.163-13.043 6.578-17.658-.596-3.394-2.335-6.043-5.002-7.037-4.924-1.833-11.145 2.666-13.896 10.051-.35.938-.627 1.879-.833 2.808h-2.427c.236-1.206.576-2.426 1.03-3.642 3.21-8.616 10.801-13.742 16.955-11.449.047.018.094.037.141.056-.009-.05-.02-.099-.028-.149-1.092-6.475 5.374-12.964 14.44-14.492 9.066-1.528 17.301 2.483 18.392 8.959.008.049.015.1.022.149.039-.032.076-.066.115-.097 5.063-4.184 13.914-1.829 19.771 5.258l.001.001zm122.821-103.6c1.916 1.24 2.464 3.8 1.223 5.716-1.24 1.916-3.799 2.464-5.715 1.223-1.917-1.24-2.463-3.8-1.224-5.716 1.24-1.916 3.8-2.464 5.716-1.223zM218.72 4.678c-.592-1.801-1.627-3.401-2.978-4.671h-3.143c2.56 1.424 4.38 4.016 4.743 7.057 4.292-1.839 9.378-.22 11.772 3.925 2.392 4.144 1.252 9.358-2.487 12.156.092.069.181.139.27.211h2.669c-.061-.071-.121-.141-.184-.211 3.144-3.516 3.838-8.785 1.351-13.091-2.486-4.307-7.396-6.341-12.013-5.376zm8.182 18.682c3.518 2.842 4.545 7.9 2.212 11.941-2.393 4.145-7.479 5.764-11.772 3.925-.553 4.636-4.498 8.232-9.284 8.232-4.786 0-8.73-3.596-9.284-8.232-4.291 1.839-9.378.22-11.77-3.925-2.393-4.145-1.252-9.359 2.487-12.156-3.739-2.798-4.88-8.012-2.487-12.156 2.392-4.145 7.479-5.764 11.77-3.925.362-3.04 2.183-5.632 4.743-7.057h-3.143c-1.35 1.27-2.386 2.869-2.977 4.671-4.616-.965-9.526 1.069-12.013 5.376s-1.793 9.576 1.351 13.091c-3.144 3.515-3.838 8.785-1.351 13.091 2.487 4.307 7.397 6.341 12.013 5.376 1.472 4.481 5.688 7.716 10.661 7.716s9.19-3.236 10.662-7.716c4.617.965 9.527-1.069 12.013-5.376 2.437-4.22 1.82-9.364-1.164-12.876h-2.667zm17.536 28.274c-3.04-6.833.034-14.835 6.867-17.875 2.841-1.264 5.885-1.47 8.69-.788v2.808c-2.415-.745-5.1-.653-7.589.455-5.466 2.432-7.926 8.835-5.494 14.3.831 1.867 2.124 3.382 3.685 4.472.11-1.044.294-2.063.544-3.053-.72-.7-1.321-1.546-1.754-2.52-1.824-4.1.021-8.902 4.12-10.726 2.147-.955 4.485-.904 6.488-.05v4.068c-3.651 3.047-6.167 7.463-6.705 12.566-.688 6.526 2.023 12.627 6.705 16.541v3.388c-.199-.136-.396-.274-.591-.416-.21 1.718-.005 3.464.591 5.082v5.198c-1.698-1.925-2.779-4.259-3.19-6.703-1.103.162-2.242.19-3.401.068-6.918-.729-12.067-6.547-12.122-13.341h2.709c.056 5.424 4.171 10.066 9.697 10.648 2.03.214 3.989-.148 5.713-.954h-.001c-.839-.611-1.629-1.279-2.368-1.999-.968.273-2.001.371-3.061.26-4.462-.47-7.699-4.469-7.228-8.93.271-2.574 1.717-4.741 3.749-6.023-.039-1.02-.006-2.056.105-3.101-3.506 1.489-6.12 4.784-6.547 8.839-.044.423-.063.842-.059 1.256h-2.709c-.004-.508.02-1.022.074-1.539.387-3.669 2.205-6.84 4.841-9.018-.692-.873-1.286-1.847-1.76-2.912l.001-.001zm15.557 163.517c-3.154-1.865-5.508-5.48-6.467-9.892-6.26.9-12.014-1.315-14.23-6.022-2.216-4.706-.259-10.55 4.423-14.804-3.909-4.971-4.867-11.061-1.9-15.333 2.968-4.272 9.009-5.5 15.033-3.572.794-1.984 1.868-3.739 3.142-5.177v4.876c-.602 1.206-1.082 2.546-1.409 3.981-5.693-2.871-11.826-2.377-14.497 1.468-2.671 3.845-.993 9.764 3.684 14.098-5.333 3.494-7.971 9.053-5.977 13.287 1.995 4.236 7.96 5.742 14.051 3.858.235 4.145 1.798 7.737 4.148 9.847v3.386l-.001-.001zm-44.253 44.847c-2.008-1.888-4.711-3.045-7.685-3.045-2.973 0-5.676 1.157-7.684 3.045h3.143c1.344-.749 2.892-1.175 4.541-1.175 1.648 0 3.197.426 4.541 1.175H215.742zm11.142-23.069c-.411-1.009-.597-2.053-.583-3.077h4.721c-.016.43.058.871.231 1.296.655 1.609 2.49 2.381 4.099 1.726 1.608-.656 2.382-2.491 1.726-4.1-.655-1.608-2.49-2.381-4.099-1.726-1.183.482-1.914 1.602-1.957 2.8h-4.721c.046-3.059 1.885-5.941 4.896-7.168 4.023-1.639 8.61.293 10.249 4.315 1.638 4.021-.293 8.609-4.314 10.248-4.022 1.639-8.61-.293-10.248-4.314zm-47.464-71.933c-6.06-2.597-13.243-.311-16.621 5.542-3.379 5.853-1.768 13.215 3.512 17.165-.236.176-.463.359-.684.548h11.069c-.007-.182-.011-.364-.011-.548 0-8.75 7.094-15.844 15.845-15.844 8.751 0 15.845 7.094 15.845 15.844 0 8.751-7.094 15.845-15.845 15.845-8.565 0-15.543-6.798-15.834-15.293h-11.073c-4.726 4.056-6.051 11.023-2.824 16.613 3.378 5.853 10.561 8.139 16.621 5.542.781 6.548 6.353 11.625 13.11 11.625 6.758 0 12.329-5.077 13.109-11.625 6.061 2.598 13.243.311 16.622-5.541 3.379-5.853 1.768-13.215-3.512-17.165 5.28-3.95 6.891-11.314 3.512-17.165-3.379-5.853-10.562-8.139-16.623-5.542-.781-6.548-6.351-11.624-13.109-11.624-6.757 0-12.329 5.077-13.11 11.624l.001-.001zm13.11 35.911c7.292 0 13.204-5.912 13.204-13.204 0-7.292-5.912-13.204-13.204-13.204-7.292 0-13.204 5.912-13.204 13.204 0 .184.005.366.012.548h2.643c-.009-.181-.014-.364-.014-.548 0-5.832 4.729-10.562 10.563-10.562 5.834 0 10.564 4.728 10.564 10.562s-4.73 10.563-10.564 10.563c-5.649 0-10.262-4.433-10.549-10.011h-2.643c.289 7.036 6.085 12.652 13.192 12.652zm0-5.282c4.376 0 7.923-3.547 7.923-7.923 0-4.375-3.547-7.921-7.923-7.921-4.375 0-7.922 3.547-7.922 7.921 0 .185.007.368.019.549h2.649c-.018-.18-.028-.364-.028-.549 0-2.917 2.365-5.281 5.282-5.281s5.282 2.364 5.282 5.281c0 2.918-2.365 5.282-5.282 5.282-2.732 0-4.976-2.072-5.253-4.729h-2.65c.284 4.118 3.714 7.37 7.903 7.37zm31.441 42.49c-.57-1.398-.831-2.844-.816-4.263h1.573c-.015 1.222.209 2.467.699 3.67 1.965 4.825 7.471 7.142 12.297 5.176 4.826-1.965 7.144-7.471 5.178-12.297-1.966-4.826-7.472-7.143-12.298-5.177-3.621 1.475-5.831 4.945-5.876 8.624h-1.573c.046-4.3 2.624-8.357 6.856-10.081 5.629-2.294 12.053.41 14.347 6.04 2.294 5.63-.41 12.054-6.04 14.348-5.63 2.294-12.053-.411-14.347-6.04zm23.256.818c.983 2.413-.176 5.165-2.589 6.149-1.392.566-2.898.42-4.111-.267-.512.299-1.051.567-1.616.797 1.723 1.386 4.127 1.82 6.32.927 3.217-1.311 4.763-4.982 3.451-8.199-.447-1.098-1.17-2.001-2.055-2.662-.083.597-.208 1.185-.374 1.761.405.42.739.922.972 1.495l.002-.001zm-8.316 6.678c-.565.231-1.137.415-1.712.559-.161.561-.429 1.1-.808 1.589-1.598 2.058-4.562 2.431-6.619.833-1.188-.922-1.815-2.299-1.824-3.694-.521-.296-1.022-.629-1.499-.998-.338 2.185.488 4.483 2.358 5.935 2.744 2.131 6.695 1.634 8.825-1.11.728-.937 1.148-2.014 1.278-3.113l.001-.001zm-12.464-1.713c-.472-.368-.921-.768-1.34-1.204-.565.14-1.166.178-1.778.093-2.581-.354-4.386-2.734-4.031-5.315.205-1.488 1.083-2.719 2.285-3.425-.004-.604.036-1.205.118-1.798-2.06.8-3.638 2.664-3.96 5.009-.474 3.442 1.932 6.615 5.373 7.089 1.175.161 2.318-.013 3.334-.449h-.001zm-4.746-11.652c.082-.597.207-1.185.373-1.761-.405-.42-.739-.922-.972-1.495-.983-2.413.176-5.166 2.589-6.149 1.392-.566 2.898-.421 4.111.267.512-.299 1.051-.567 1.616-.797-1.723-1.386-4.127-1.82-6.321-.926-3.217 1.311-4.761 4.982-3.451 8.199.447 1.098 1.17 2.001 2.055 2.662zm7.718-9.935c.565-.23 1.136-.415 1.712-.559.161-.561.429-1.1.809-1.589 1.597-2.058 4.561-2.431 6.618-.833 1.187.922 1.813 2.299 1.824 3.694.521.296 1.022.629 1.499.999.338-2.185-.488-4.482-2.358-5.935-2.744-2.13-6.696-1.634-8.826 1.11-.727.937-1.147 2.014-1.277 3.112l-.001.001zm12.465 1.715c.472.366.921.768 1.34 1.203 2.24-.558 4.607.599 5.503 2.799.896 2.2.012 4.682-1.98 5.848.004.604-.036 1.205-.118 1.797.034-.013.068-.026.102-.04 3.217-1.311 4.763-4.982 3.451-8.199-1.311-3.217-4.981-4.761-8.199-3.45-.034.013-.068.027-.101.043l.002-.001zm18.111-50.689v3.65c-.638-.641-1.376-1.264-2.2-1.835-3.757-2.611-7.862-3.204-9.168-1.325-1.306 1.879.682 5.518 4.441 8.13 2.453 1.704 5.053 2.548 6.927 2.407v2.909c-1.821-.549-4.646-.173-7.469 1.156-4.139 1.95-6.705 
5.209-5.731 7.278.975 2.07 5.122 2.168 9.261.218 1.578-.743 2.927-1.675 3.939-2.662v14.076c-1.074-2.095-1.61-4.906-1.356-7.94.008-.09.015-.18.025-.269l.002-.015c.009-.091.019-.181.029-.271l.001-.011.002-.011c.009-.083.02-.166.031-.249l.005-.033c.01-.078.021-.157.033-.235l.008-.051.033-.213.014-.085.005-.029.024-.139.016-.091.005-.028.001-.005.026-.137-.025.015-.024.015-.025.015-.025.015-.025.016-.116.069-.008.005-.025.015-.025.014-.025.015-.025.015-.121.069-.142.08-.088.048c-.056.031-.113.061-.169.092l-.057.03c-.073.039-.147.077-.221.115l-.005.002-.008.004c-.165.084-.333.167-.503.247-5.521 2.599-11.312 1.909-12.936-1.541-1.624-3.45 1.533-8.353 7.054-10.953.082-.039.164-.076.246-.113l.014-.006.014-.006c.077-.034.153-.068.23-.102l.015-.007.027-.011c.07-.031.139-.059.208-.089l.038-.016.027-.011.164-.066.027-.011.075-.029.144-.056.027-.009.082-.032.028-.009.109-.04.026-.01.11-.039.027-.01.109-.038-.101-.056-.025-.014-.101-.057-.025-.014-.1-.058-.025-.015-.076-.044-.025-.015-.132-.078-.069-.042-.025-.015-.15-.093-.025-.016-.036-.022c-.062-.04-.127-.08-.189-.121l-.025-.016-.015-.009c-.069-.046-.139-.091-.21-.137l-.012-.009-.013-.008c-.074-.05-.148-.101-.222-.152-5.012-3.481-7.31-8.843-5.135-11.975 2.176-3.132 8.002-2.849 13.013.632.154.107.306.216.455.327l.006.005h.001l.005.003.156.117h-.007zm0-126.853v4.803c-.688 1.395-1.146 2.934-1.318 4.572-.279 2.642.223 5.186 1.318 7.404v4.806c-2.926-3.297-4.51-7.765-4.011-12.494.37-3.51 1.831-6.64 4.011-9.09v-.001zm-51.938-12.118c6.127 0 11.105-4.909 11.22-11.006h-1.872c-.113 5.065-4.254 9.137-9.348 9.137-5.164 0-9.35-4.187-9.35-9.351 0-5.164 4.186-9.35 9.35-9.35s9.351 4.185 9.351 9.35l-.003.21h1.872l.002-.21c0-6.198-5.024-11.222-11.222-11.222-6.196 0-11.22 5.024-11.22 11.222 0 6.197 5.024 11.22 11.22 11.22zm0-3.739c4.061 0 7.365-3.235 7.478-7.267h-1.871c-.112 2.999-2.579 5.397-5.607 5.397-3.099 0-5.611-2.512-5.611-5.61 0-3.099 2.513-5.611 5.611-5.611 3.099 0 5.611 2.512 5.611 5.611 0 .07-.001.14-.004.209h1.871l.003-.21c0-4.132-3.349-7.48-7.481-7.48-4.131 0-7.48 3.349-7.48 7.48s3.349 7.481 7.48 7.481zm0-3.74c2.066 0 3.741-1.675 3.741-3.74 0-2.065-1.675-3.74-3.741-3.74s-3.739 1.675-3.739 3.74c0 2.066 1.673 3.74 3.739 3.74zm10.935 82.578c.825.534 1.54 1.173 2.142 1.888h3.354c-.951-1.646-2.294-3.097-3.999-4.201h.001c-5.749-3.721-13.425-2.078-17.147 3.671-3.721 5.748-2.078 13.426 3.671 17.146 5.747 3.721 13.424 2.078 17.146-3.671 2.617-4.042 2.581-9.038.33-12.942h-3.353c2.655 3.159 3.069 7.8.71 11.445-2.894 4.471-8.865 5.749-13.336 2.855-4.471-2.894-5.748-8.866-2.855-13.337 2.894-4.471 8.866-5.749 13.337-2.855l-.001.001zm2.245-3.47c1.629 1.054 2.96 2.395 3.972 3.912 1.993.087 3.708-.565 4.603-1.948 1.654-2.555-.112-6.637-3.945-9.118-3.831-2.481-8.28-2.421-9.933.134-.895 1.384-.788 3.215.108 4.998 1.799.302 3.567.968 5.194 2.022h.001zm5.426 6.759c1.288 3.468 1.169 7.415-.556 10.9.921 1.771 2.343 2.933 3.989 3.016 3.04.155 5.692-3.416 5.924-7.975.232-4.559-2.042-8.381-5.082-8.536-1.647-.084-3.18.926-4.277 2.594l.002.001zm-2.293 13.586c-2.475 3-6.027 4.726-9.719 4.97-1.073 1.683-1.367 3.494-.616 4.963 1.386 2.71 5.803 3.221 9.869 1.143 4.064-2.079 6.236-5.96 4.851-8.669-.751-1.468-2.392-2.291-4.385-2.406v-.001zm-12.911 4.808c-1.799-.302-3.565-.968-5.195-2.023-1.628-1.054-2.959-2.395-3.971-3.912-1.993-.087-3.708.564-4.604 1.948-1.654 2.555.112 6.638 3.944 9.118 3.832 2.481 8.28 2.421 9.934-.134.896-1.384.788-3.215-.109-4.998l.001.001zm-10.619-8.781c-1.289-3.467-1.169-7.414.555-10.901-.921-1.771-2.342-2.932-3.989-3.016-3.039-.155-5.692 3.416-5.924 7.975-.232 4.559 2.042 8.381 5.083 8.536 1.647.083 3.18-.927 4.276-2.594h-.001zm2.294-13.585c2.474-3.001 6.026-4.726 9.718-4.97 1.073-1.683 1.367-3.495.616-4.962-1.385-2.71-5.804-3.223-9.868-1.143-4.065 2.077-6.237 5.959-4.851 8.669.751 1.468 2.392 2.291 4.385 2.406zM65.181 259.999h-7.044c-6.453-1.403-11.719-6.596-12.883-13.506-.171-1.015-.246-2.024-.232-3.019h9.515c-.016.473.015.954.097 1.439.654 3.886 4.335 6.504 8.221 5.849 3.886-.655 6.505-4.335 5.85-8.221-.655-3.886-4.336-6.505-8.222-5.85-3.4.573-5.83 3.463-5.946 6.779h-9.515c.112-7.881 5.831-14.804 13.881-16.16 9.066-1.528 17.655 4.582 19.183 13.649 1.486 8.816-4.251 17.179-12.904 19.04h-.001zm-7.465-39.725c3.302-.555 6.56-.402 9.618.349 1.093-.916 1.978-1.939 2.605-3.021h2.806c-.455 1.47-.532 3.165-.244 4.951h.001c5.683 2.914 10.133 8.076 12.002 14.526 3.237 1.181 6.401 1 8.595-.813 4.051-3.347 3.264-10.985-1.755-17.06-5.02-6.075-12.373-8.288-16.424-4.94-1.041.86-1.762 2.004-2.174 3.332h-2.805c.887-1.53 1.26-3.18.983-4.823-.873-5.181-7.881-8.318-15.652-7.009-7.771 1.309-13.363 6.571-12.49 11.752.473 2.806 2.746 5.012 5.964 6.238 2.642-1.713 5.669-2.926 8.972-3.482h-.002zM156.111 260h-2.624c-1.779-3.423-5.187-5.916-9.31-6.351-5.009-.528-9.618 2.135-11.806 6.351h-2.621c2.359-5.685 8.243-9.394 14.675-8.716 5.378.567 9.743 4.052 11.685 8.716h.001zM135.2 248.087c.826-.368 1.681-.679 2.561-.927.856-3.385 4.089-5.713 7.662-5.337 3.573.376 6.25 3.329 6.382 6.817.808.426 1.58.909 2.312 1.441.007-.055.014-.11.02-.165.551-5.225-3.239-9.906-8.463-10.458-5.225-.55-9.907 3.24-10.458 8.464-.006.055-.011.111-.015.166l-.001-.001zm11.717-51.929c.219.378.383.777.495 1.191h-2.13c-.031-.063-.064-.126-.1-.188-1.384-2.397-5.615-2.545-9.451-.331-.404.234-.788.484-1.149.748l.01-.101v-.003l.002-.021.006-.067.009-.102.002-.021.005-.063c.004-.053.008-.104.011-.156l.002-.037c.004-.057.007-.115.01-.173l.001-.024c.002-.061.005-.121.007-.182v-.015c.002-.066.004-.132.005-.198v-.01c.002-.065.002-.132.002-.197 0-4.428-2.244-8.018-5.012-8.018l.002-.002c-2.768 0-5.011 3.59-5.011 8.018 0 .066 0 .131.001.197v.01c.002.066.003.133.005.198v.015c.003.062.005.122.008.182l.001.025c.003.056.007.113.01.17l.002.04c.003.05.007.102.011.153l.005.063.002.022.009.101.006.068.002.021v.005l.008.078.002.022-.017-.012-.017-.012-.017-.013-.017-.012-.017-.012-.08-.057-.007-.004-.017-.012-.017-.012-.017-.012-.017-.012-.083-.057-.097-.067-.061-.041c-.04-.026-.079-.051-.118-.077l-.039-.025c-.051-.032-.102-.063-.153-.095l-.003-.002-.005-.003c-.114-.071-.23-.141-.348-.209-3.835-2.214-8.067-2.066-9.451.331-1.384 2.396.604 6.136 4.439 8.349.056.034.113.066.171.098l.009.004.009.006c.053.03.106.059.16.087l.011.007.019.009c.049.026.097.051.145.076l.027.014.019.01.115.058.019.009.053.026.101.049.019.009.057.027.019.009.077.036.019.009.078.035.018.009.077.035-.077.034-.018.009-.078.035-.019.009-.077.036-.019.009-.057.027-.019.009-.101.049-.053.026-.019.01-.115.057-.019.01-.027.014c-.048.025-.097.05-.145.076l-.019.01-.011.006c-.052.028-.107.058-.16.087l-.009.005-.009.006c-.057.032-.114.064-.171.097-3.835 2.214-5.823 5.953-4.439 8.35 1.384 2.398 5.615 2.546 9.451.331.118-.068.234-.138.348-.209l.005-.003.003-.002c.051-.032.102-.064.153-.097l.039-.025c.04-.026.079-.051.118-.077l.061-.04.097-.066.083-.057.017-.012.017-.012.017-.013.017-.012.007-.004.08-.057.017-.012.017-.012.017-.012.017-.012.017-.012-.01.101v.004l-.002.021-.006.067-.009.102-.002.021-.005.063c-.004.052-.008.104-.011.156l-.002.037c-.004.057-.007.115-.01.172l-.001.024c-.003.062-.006.123-.008.183v.016c-.003.066-.004.131-.005.197v.011c-.001.065-.001.131-.001.197 0 4.429 
2.243 8.019 5.011 8.019 2.768 0 5.012-3.591 5.012-8.019 0-.066-.001-.132-.002-.197v-.011c0-.066-.003-.131-.005-.197v-.016c-.002-.062-.004-.123-.007-.183l-.001-.024c-.003-.056-.006-.114-.01-.171l-.002-.038c-.003-.052-.007-.105-.011-.156l-.005-.063-.001-.021-.009-.101-.007-.068-.001-.021v-.005l-.008-.079-.002-.021.017.012.017.012.017.012.017.012.017.013.08.057.006.004.017.012.017.012.017.012.017.012.083.057.098.066.061.04c.039.026.078.052.117.077l.039.025c.051.034.102.065.153.098l.003.002.005.002c.115.071.231.142.349.21 3.835 2.214 8.066 2.065 9.451-.332 1.384-2.397-.604-6.135-4.439-8.35-.057-.033-.114-.066-.171-.097l-.009-.006-.009-.005c-.054-.029-.107-.057-.161-.087l-.011-.006-.019-.009c-.048-.025-.097-.051-.145-.076l-.027-.014-.019-.01-.115-.058-.019-.01-.053-.026-.101-.049-.018-.009-.058-.027-.018-.009-.078-.036-.019-.009-.077-.035-.019-.009-.076-.034c.408-.181.817-.388 1.221-.621 3.735-2.156 5.717-5.757 4.541-8.158h2.13c.761 2.804-.84 6.295-4.015 8.779 3.645 2.851 5.218 7.031 3.518 9.974-1.699 2.944-6.105 3.672-10.396 1.94-.646 4.583-3.481 8.034-6.879 8.034-3.398 0-6.232-3.451-6.878-8.034-4.292 1.733-8.698 1.004-10.397-1.94-1.699-2.943-.127-7.122 3.519-9.974-3.646-2.851-5.218-7.031-3.519-9.974 1.699-2.943 6.105-3.671 10.397-1.94.646-4.583 3.48-8.034 6.878-8.034s6.232 3.451 6.879 8.034c4.291-1.731 8.697-1.003 10.396 1.94zm-31.078 2.005c.831-1.438 3.836-1.258 6.713.403 2.877 1.661 4.535 4.173 3.705 5.612-.83 1.438-3.835 1.257-6.712-.403-2.877-1.661-4.536-4.173-3.705-5.612h-.001zm0 15.938c-.83-1.438.829-3.951 3.705-5.611 2.877-1.661 5.882-1.841 6.713-.403.83 1.438-.829 3.951-3.705 5.612-2.877 1.661-5.882 1.84-6.713.402zm13.803 7.969c-1.661 0-3.007-2.692-3.007-6.015 0-3.321 1.347-6.015 3.007-6.015 1.661 0 3.007 2.693 3.007 6.015 0 3.322-1.346 6.015-3.007 6.015zm13.802-7.969c-.83 1.438-3.835 1.258-6.711-.402-2.877-1.661-4.536-4.173-3.705-5.612.83-1.438 3.835-1.258 6.712.403 2.876 1.661 4.536 4.174 3.704 5.611zm0-15.938c.83 1.438-.828 3.951-3.704 5.612-2.877 1.661-5.882 1.841-6.712.403-.83-1.438.828-3.951 3.705-5.612 2.876-1.661 5.881-1.841 6.711-.403zM.007 207.343v-14.076c1.642-1.599 2.395-3.336 1.792-4.617-.309-.659-.942-1.118-1.792-1.375v-2.91c.996-.074 1.788-.428 2.241-1.082 1.019-1.467.03-4.008-2.241-6.294v-3.65l.041.032.051.039c.052.039.101.079.152.118l.079.063.127.102.107.088.023.019.022.019.022.019.022.019.008.005.104.087.022.019.022.019.022.019.022.019.021.019-.001-.029-.001-.108v-.007l-.001-.03-.002-.094-.001-.139V173.52l.003-.213.001-.053c.002-.078.004-.157.008-.236l.001-.033c.003-.083.007-.167.01-.25l.002-.011.001-.012c.005-.089.01-.18.017-.272l.001-.015c.006-.09.013-.18.02-.269.509-6.081 4.003-10.752 7.803-10.433 3.8.317 6.467 5.505 5.959 11.585-.008.09-.016.18-.025.269l-.002.015c-.009.091-.019.181-.029.271l-.002.011-.001.011c-.009.083-.02.166-.031.249l-.004.033c-.011.079-.023.157-.033.235l-.008.051c-.011.071-.022.143-.033.213l-.014.085-.005.03-.024.139-.016.091-.005.028-.001.005-.026.137c.526-.321 1.081-.621 1.663-.896 5.52-2.599 11.312-1.91 12.936 1.541.532 1.13.551 2.415.143 3.725h-2.856c.461-.925.563-1.813.216-2.549-.975-2.07-5.122-2.167-9.262-.218-1.635.769-3.024 1.743-4.046 2.767H9.732c1.13-1.422 1.982-3.769 2.208-6.473.382-4.56-1.156-8.412-3.437-8.603-2.281-.191-4.438 3.352-4.82 7.912-.381 4.56 1.157 8.412 3.437 8.603.927.077 1.834-.462 2.609-1.435h3.496c-1.566 1.568-2.272 3.254-1.682 4.506.975 2.07 5.122 2.167 9.262.218 2.665-1.254 4.678-3.051 5.514-4.724h2.857c-.841 2.689-3.484 5.478-7.196 7.225-.582.274-1.166.511-1.749.712l.101.056.025.014.101.057.025.014.101.058.025.015.076.044.025.015.131.078.07.042.025.015.15.093.025.015.035.022c.063.041.127.081.19.121l.025.016.014.009c.07.047.14.092.21.139l.013.01.012.007c.074.05.149.101.223.152 2.563 1.78 4.415 4.053 5.323 6.267h-2.971c-.83-1.369-2.188-2.794-3.922-3.999-3.758-2.611-7.864-3.204-9.169-1.325-.877 1.263-.268 3.318 1.365 5.324H9.074c-.613-1.763-1.625-2.926-2.852-3.029-2.28-.191-4.438 3.351-4.82 7.911-.382 4.56 1.157 8.412 3.437 8.603v.001c2.281.191 4.438-3.352 4.82-7.912.177-2.104-.057-4.058-.583-5.571h3.386c.798.98 1.84 1.947 3.074 2.803 3.759 2.611 7.863 3.204 9.169 1.325.702-1.011.45-2.532-.517-4.128h2.97c.866 2.114.871 4.174-.191 5.704-2.176 3.132-8.002 2.849-13.014-.632-.154-.107-.306-.217-.455-.327l-.006-.005h-.001l-.004-.003c-.067-.05-.133-.1-.199-.15l-.051-.039c-.051-.039-.102-.079-.152-.118l-.079-.063-.127-.102-.107-.088-.023-.019-.022-.019-.023-.019-.022-.019-.008-.006-.103-.088-.022-.019-.022-.019-.022-.019-.022-.018-.022-.019.001.029.002.109V198.841l.001.093.001.139V199.19c-.001.071-.001.142-.003.213l-.002.053c-.001.078-.004.157-.006.236l-.001.033c-.003.083-.007.167-.011.251l-.001.01-.001.011c-.005.09-.01.181-.016.272l-.001.015c-.006.09-.013.18-.021.269-.509 6.081-4.003 10.752-7.803 10.434-1.904-.159-3.524-1.541-4.603-3.646l.01.002zm123.832-76.166c1.438.931 2.231 2.483 2.255 4.076h6.586c-.027-3.75-1.879-7.414-5.262-9.603-5.344-3.459-12.48-1.932-15.938 3.411-1.242 1.918-1.841 4.066-1.852 6.192h6.587c.012-.898.269-1.804.793-2.614 1.483-2.29 4.541-2.945 6.831-1.463v.001zm2.255 4.079c.014.944-.241 1.901-.793 2.752-1.483 2.29-4.541 2.945-6.831 1.462-1.479-.958-2.276-2.572-2.255-4.214h-6.587c-.019 3.799 1.838 7.527 5.264 9.744 5.343 3.459 12.479 1.932 15.938-3.412 1.268-1.96 1.865-4.16 1.85-6.332h-6.586zm4.009-13.753c1.946 1.26 3.537 2.861 4.747 4.674 2.382.105 4.432-.674 5.502-2.328 1.977-3.053-.135-7.932-4.714-10.897-4.58-2.965-9.895-2.893-11.871.16-.611.943-.832 2.06-.71 3.241h-1.886c.267-1.195.17-2.364-.356-3.391-1.656-3.238-6.937-3.85-11.794-1.366s-7.453 7.123-5.797 10.362c.897 1.754 2.859 2.738 5.241 2.876 2.957-3.587 7.202-5.648 11.614-5.94.531-.833.901-1.691 1.091-2.537h1.888c.092.889.378 1.813.837 2.728 2.15.361 4.262 1.157 6.208 2.417v.001zm3.742 24.312c-2.958 3.587-7.203 5.647-11.615 5.939-.841 1.32-1.281 2.706-1.232 3.998h-1.779c.207-1.303-.087-2.759-.805-4.188l.001-.001c-2.15-.362-4.262-1.157-6.208-2.417-1.946-1.26-3.538-2.861-4.747-4.675-2.382-.104-4.432.675-5.502 2.328-1.977 3.054.134 7.933 4.714 10.897 4.58 2.966 9.895 2.894 11.871-.159.351-.544.573-1.144.675-1.781h1.78c.027.676.188 1.328.495 1.93 1.657 3.239 6.937 3.85 11.794 1.366 4.858-2.484 7.454-7.122 5.797-10.361-.897-1.755-2.859-2.738-5.24-2.875l.001-.001zM58.137.009h7.043c-.246.053-.494.101-.745.144-2.155.364-4.284.294-6.298-.144zm14.642 164.24c3.08.571 6.04-1.464 6.61-4.544.046-.251.075-.501.088-.749h-1.136c-.012.18-.034.361-.067.543-.456 2.464-2.824 4.092-5.288 
3.635-2.464-.455-4.092-2.824-3.635-5.287.456-2.464 2.824-4.092 5.288-3.635 2.281.421 3.844 2.482 3.702 4.74h1.136c.142-2.796-1.804-5.333-4.632-5.856-3.08-.572-6.04 1.464-6.61 4.544-.571 3.079 1.464 6.039 4.544 6.609zm.414-2.23c1.848.342 3.624-.878 3.966-2.726.02-.113.036-.225.045-.337h-1.139l-.021.13c-.229 1.233-1.412 2.046-2.644 1.818-1.233-.229-2.046-1.412-1.818-2.644.228-1.233 1.412-2.046 2.644-1.818 1.188.22 1.986 1.327 1.839 2.51h1.139c.144-1.721-1.037-3.305-2.771-3.625-1.848-.342-3.624.878-3.966 2.727-.342 1.848.878 3.624 2.726 3.965zM.007 68.071v-4.805c1.987 4.024 5.932 6.975 10.727 7.479 7.438.784 14.102-4.609 14.885-12.046.783-7.437-4.61-14.101-12.047-14.884-5.8-.612-11.128 2.534-13.565 7.475v-4.803c3.363-3.779 8.435-5.936 13.849-5.366 8.925.939 15.398 8.937 14.457 17.861-.94 8.924-8.937 15.397-17.861 14.457-4.195-.442-7.849-2.443-10.445-5.368zm11.579-5.404c-2.975-.313-5.133-2.979-4.819-5.954.313-2.975 2.979-5.133 5.954-4.819 2.975.314 5.133 2.979 4.819 5.954-.314 2.975-2.979 5.133-5.954 4.819zm18.738-21.171c4.462.47 7.699 4.468 7.228 8.93-.271 2.575-1.717 4.741-3.749 6.023.038 1.021.006 2.056-.104 3.101 3.506-1.489 6.119-4.785 6.547-8.841.627-5.949-3.688-11.28-9.638-11.908-2.03-.213-3.988.149-5.713.955.838.609 1.63 1.278 2.369 1.998.966-.272 2-.371 3.06-.258zm3.374 18.056c-.11 1.045-.294 2.064-.544 3.053.72.699 1.321 1.545 1.754 2.52 1.824 4.1-.021 8.901-4.119 10.724-2.366 1.054-4.965.883-7.091-.235-.873.551-1.787 1.04-2.734 1.463 3.042 2.29 7.201 2.905 10.926 1.248 5.466-2.432 7.926-8.834 5.494-14.301-.83-1.866-2.124-3.382-3.685-4.472h-.001zM3.349 37.483c.942-.419 1.916-.773 2.916-1.056.975-3.854 4.657-6.506 8.725-6.077 4.068.429 7.117 3.79 7.267 7.763.919.484 1.799 1.034 2.631 1.64.008-.064.016-.125.022-.188.627-5.95-3.688-11.281-9.637-11.908-5.95-.627-11.281 3.688-11.908 9.638-.007.063-.012.125-.017.189l.001-.001zM129.75.011h2.621c-.664 1.282-1.106 2.707-1.267 4.229-.688 6.532 4.049 12.383 10.58 13.071 6.532.688 12.384-4.049 13.073-10.58.254-2.407-.231-4.722-1.27-6.721h2.624c.888 2.132 1.27 4.511 1.011 6.97-.826 7.838-7.849 13.522-15.687 12.697-7.837-.826-13.521-7.849-12.696-15.687.149-1.404.496-2.739 1.012-3.98l-.001.001zm12.683 10.204c-2.614-.275-4.507-2.616-4.232-5.229.275-2.611 2.617-4.506 5.229-4.231 2.613.275 4.507 2.617 4.232 5.229-.276 2.611-2.617 4.506-5.229 4.231zm43.192 42.382c3.928 3.027 4.13 9.541.796 15.415 6.504 1.821 10.949 6.588 10.292 11.504-.657 4.916-6.198 8.348-12.952 8.397 1.675 6.544-.231 12.776-4.817 14.664-4.585 1.889-10.328-1.194-13.747-7.018-4.829 4.723-11.18 6.187-15.109 3.16-3.929-3.026-4.131-9.54-.796-15.415-6.504-1.821-10.948-6.588-10.291-11.504.174-1.305.693-2.506 1.487-3.567h4.178c-1.541 1.009-2.551 2.366-2.763 3.951-.535 4.005 4.225 7.945 10.632 8.802.096.013.19.025.285.036l.015.002.016.002c.088.01.177.019.265.028l.018.002.031.004c.08.007.159.014.238.021l.044.005.031.002.187.016.031.001.086.007.163.009.031.002.093.005.031.002.123.005.031.002.123.005.031.001.122.004-.084.088-.021.022-.084.09-.021.023-.084.091-.021.023-.062.069-.022.023-.108.122-.057.064-.021.025-.122.142-.02.024-.029.034c-.051.061-.102.121-.153.183l-.02.024-.011.014c-.056.068-.112.137-.168.207l-.01.013-.01.012c-.059.075-.118.15-.177.226-3.945 5.121-4.549 11.269-1.349 13.736 3.2 2.466 8.993.314 12.938-4.806.121-.158.24-.316.355-.475l.005-.008v-.001l.003-.005c.052-.071.103-.143.153-.215l.039-.056c.039-.056.077-.112.115-.168l.06-.089.095-.144.08-.124.017-.026.017-.026.017-.026.017-.026.007-.009.076-.121.015-.026.016-.026.016-.026.016-.026.016-.026.042.141.002.006.009.029.028.093.045.142.009.029.028.087c.023.073.047.145.071.217l.018.051c.026.079.054.158.082.237l.012.033c.03.083.06.166.091.249l.004.01v.001l.005.011c.034.089.068.179.103.269l.007.015c.034.089.069.178.106.266 2.462 5.977 7.485 9.575 11.221 8.036 3.736-1.539 4.769-7.631 2.307-13.608l-.111-.264-.006-.014c-.038-.088-.077-.176-.116-.264l-.005-.011-.005-.01c-.037-.082-.074-.162-.111-.242l-.015-.032c-.035-.076-.072-.151-.108-.226l-.025-.05c-.034-.067-.067-.135-.101-.202l-.042-.083-.014-.028-.068-.131-.046-.088-.014-.027-.004-.006-.054-.102-.016-.026.03.007.03.007.03.008.03.007.03.007.139.033.01.002.03.007.03.007.03.007.03.007.144.031.169.035.105.021c.066.013.133.026.2.038l.067.012c.086.016.173.031.26.045l.005.002.009.001c.194.033.39.062.586.088 6.407.856 12.034-1.695 12.57-5.699.536-4.005-4.224-7.946-10.631-8.802-.094-.013-.189-.025-.283-.036l-.015-.002-.016-.002c-.088-.01-.177-.02-.265-.029l-.018-.002-.032-.003c-.08-.008-.16-.015-.239-.022l-.044-.004-.03-.003-.188-.015-.031-.002-.086-.006-.163-.01-.031-.002-.093-.004-.031-.002-.122-.006-.032-.002-.122-.005-.031-.001-.122-.003c.452-.472.887-.978 1.304-1.517 3.945-5.119 4.548-11.269 1.348-13.735-3.199-2.466-8.992-.314-12.937 4.807-.416.539-.794 1.09-1.135 1.647l-.042-.142-.002-.005-.009-.029-.028-.093-.045-.142-.009-.03-.028-.086c-.023-.073-.047-.145-.071-.217l-.018-.051c-.026-.079-.054-.158-.082-.237l-.012-.033c-.029-.084-.061-.166-.091-.25l-.005-.01-.004-.011c-.035-.089-.069-.179-.105-.269l-.005-.015c-.035-.089-.07-.178-.107-.266-2.462-5.977-7.485-9.575-11.221-8.036l.001-.006c-3.736 1.539-4.768 7.632-2.306 13.608.036.089.072.177.111.264l.006.014c.038.089.077.177.116.265l.005.011.005.01c.037.082.072.162.111.242l.015.032c.036.076.072.151.108.226l.025.051c.034.067.066.135.101.202l.041.083.015.028.068.131.046.088.014.027.004.007.054.101.014.027-.029-.007-.03-.007-.029-.008-.03-.007-.03-.007-.139-.032-.01-.002-.03-.007-.03-.007-.029-.007-.03-.007-.144-.03-.169-.036-.105-.021c-.066-.014-.133-.026-.2-.039l-.067-.012c-.087-.016-.173-.031-.26-.045l-.006-.001-.009-.002c-.194-.032-.39-.062-.587-.088-3.868-.516-7.451.209-9.802 1.745h-4.18c2.198-2.93 6.503-4.788 11.461-4.824-1.675-6.544.231-12.776 4.817-14.665 4.586-1.889 10.327 1.194 13.747 7.019 4.829-4.723 11.18-6.188 15.109-3.161l-.001-.001zm-40.824 19.978c.32-2.402 4.476-3.829 9.282-3.186 4.805.642 8.44 3.11 8.119 5.513-.321 2.403-4.477 3.829-9.282 3.187-4.805-.643-8.44-3.111-8.119-5.514zm8.858 21.509c-1.92-1.48-1.078-5.792 1.881-9.633 2.959-3.84 6.914-5.754 8.835-4.275 1.92 1.48 1.078 5.792-1.881 9.633-2.959 3.839-6.914 5.753-8.834 4.275h-.001zm23.055 3.081c-2.242.923-5.554-1.961-7.4-6.444s-1.526-8.865.715-9.788 5.555 1.963 7.401 6.445c1.847 4.483 1.526 8.864-.716 9.787zm14.197-18.425c-.321 2.403-4.477 3.829-9.282 3.187-4.805-.643-8.439-3.111-8.119-5.514.321-2.403 4.477-3.829 9.283-3.187 4.805.642 8.44 3.111 8.119 5.514h-.001zm-8.858-21.507c1.92 1.48 1.078 5.792-1.881 9.632-2.959 3.841-6.913 5.754-8.834 4.275-1.92-1.479-1.078-5.792 1.88-9.632 2.96-3.84 6.914-5.754 8.834-4.275h.001zM24.613 136.34c-7.761-.818-13.389-7.771-12.571-15.531.818-7.761 7.772-13.389 15.533-12.571 6.701.707 11.812 5.989 12.555 12.415h-2.034c-.733-5.401-5.071-9.81-10.733-10.407-6.651-.702-12.612 4.123-13.313 10.774-.701 6.651 4.123 12.612 10.775 13.313 6.651.702 12.612-4.123 13.313-10.775.104-.987.086-1.959-.041-2.902h2.033c.118 1.015.127 2.057.015 3.115-.818 7.76-7.771 13.388-15.532 12.57v-.001zm15.024-25.816c3.326.351 5.738 3.331 5.388 6.657-.141 1.349-.717 2.547-1.571 3.472h2.503c.572-.967.951-2.07 1.077-3.26.467-4.435-2.749-8.408-7.184-8.875-1.513-.159-2.973.11-4.258.711.625.455 1.215.954 1.765 1.49.72-.204 1.491-.277 2.281-.194l-.001-.001zm3.813 10.132c-.361.39-.77.73-1.219 1.014.028.76.005 1.532-.078 2.311 1.582-.672 2.921-1.838 3.802-3.325H43.45zm-1.298 3.326c-.082.779-.219 1.538-.405 2.276.536.522.985 1.153 1.307 1.879 1.359 3.056-.015 6.634-3.071 7.993-1.763.785-3.701.658-5.285-.176-.65.41-1.332.775-2.039 1.09 2.267 1.707 5.368 2.165 8.145.93 4.074-1.813 5.907-6.585 4.095-10.658-.619-1.391-1.583-2.521-2.747-3.334zm-9.496 13.064c-.701.313-1.428.576-2.174.787-.184.725-.506 1.427-.972 2.069-1.966 2.705-5.753 3.304-8.458 1.338-1.56-1.134-2.419-2.874-2.49-4.662-.686-.362-1.342-.772-1.963-1.224-.344 2.817.808 5.731 3.267 7.518 3.607 2.621 8.656 1.823 11.277-1.784.895-1.231 1.391-2.629 1.513-4.043v.001zm-16.06-1.694c-.625-.455-1.215-.953-1.765-1.49-.72.205-1.491.278-2.281.194-3.326-.349-5.738-3.33-5.387-6.656.202-1.919 1.28-3.534 2.794-4.489-.028-.761-.004-1.533.078-2.312-2.613 1.11-4.561 3.566-4.88 6.589-.467 4.435 2.749 8.407 7.184 8.874 1.512.16 2.973-.11 4.258-.71h-.001zm-6.561-14.755c.082-.778.219-1.537.405-2.275-.536-.522-.985-1.153-1.308-1.878-1.359-3.055.015-6.635 3.071-7.994 1.763-.784 3.701-.658 5.285.176.651-.41 1.332-.775 2.038-1.09-2.267-1.707-5.368-2.165-8.144-.93-4.074 1.812-5.907 6.585-4.095 10.659.619 1.39 1.583 2.52 2.747 3.333l.001-.001zm9.497-13.064c.701-.312 1.427-.576 2.173-.787.726-2.872 3.471-4.849 6.503-4.53 3.032.319 5.305 2.825 5.417 5.786.686.362 1.341.771 1.962 1.223.006-.046.012-.093.017-.14.467-4.435-2.749-8.407-7.183-8.875-4.435-.468-8.408 2.748-8.876 7.183-.004.047-.009.095-.012.142l-.001-.002zm47.784-48.074c1.988 3.709 6.606 5.105 10.315 3.118 2.593-1.39 4.055-4.066 4.021-6.818h-1.27c.034 2.299-1.185 4.537-3.351 5.698-3.091 1.656-6.939.493-8.596-2.598-1.656-3.091-.493-6.94 2.598-8.596 3.091-1.656 6.94-.493 8.596 2.598.495.923.738 1.914.753 2.894h1.27c-.015-1.182-.307-2.379-.904-3.493-1.987-3.71-6.606-5.105-10.315-3.117-3.709 1.987-5.105 6.606-3.117 10.315v-.001zm2.238-1.2c1.325 2.472 4.404 3.403 6.877 2.078 1.739-.932 2.715-2.732 2.68-4.578H77.84c.035 1.394-.698 2.755-2.009 3.459-1.855.994-4.164.296-5.158-1.559-.993-1.855-.296-4.164 1.559-5.158 1.855-.993 4.164-.296 5.158 1.559.289.541.435 1.121.45 1.695h1.271c-.015-.777-.21-1.563-.602-2.295-1.325-2.473-4.404-3.403-6.877-2.078-2.473 1.325-3.403 4.404-2.078 6.877zm2.238-1.2c.663 1.237 2.202 1.702 3.439 1.039 1.236-.663 1.702-2.202 1.039-3.439-.663-1.236-2.202-1.702-3.438-1.039-1.237.663-1.702 2.202-1.039 3.437l-.001.002zm50.242-7.33c.573.819-.291 2.412-1.929 3.557-.72.502-1.469.835-2.131.982v1.241c.7.012 1.539.213 2.377.604 1.811.846 2.936 2.267 2.513 3.172v.001c-.423.906-2.234.954-4.046.107-.19-.089-.372-.184-.546-.284h-2.227c.226.543.387 1.197.448 1.909.174 1.992-.494 3.675-1.491 3.762-.995.087-1.942-1.458-2.116-3.449-.071-.824.002-1.595.182-2.222h-1.59c-.319.357-.711.706-1.162 1.021-1.639 1.146-3.431 1.41-4.004.59-.573-.819.292-2.412 1.93-3.557 1.639-1.145 3.431-1.41 4.003-.59.415.593.077 1.592-.763 2.532h1.587c.255-.888.725-1.486 1.308-1.537.64-.055 1.259.562 1.666 1.537h2.222c-1.48-.855-2.338-2.075-1.96-2.885.227-.486.854-.725 1.666-.711v-1.241c-.846.186-1.549.067-1.87-.392-.281-.402-.217-.989.114-1.618h-1.342c-.246.367-.554.592-.902.623-.405.036-.801-.199-1.141-.623h-1.531c.688.685 1 1.422.744 1.97-.423.906-2.235.954-4.046.107-1.811-.846-2.936-2.267-2.513-3.172.423-.906 2.234-.954 4.046-.107.712.333 1.317.755 1.765 1.199h1.532c-.495-.62-.869-1.644-.971-2.824-.035-.407-.035-.801-.005-1.171h-1.204c-.034.41-.035.839.004 1.277.003.04.007.079.01.118l.002.006v.007c.004.036.008.074.012.109l.001.008.002.013c.003.033.007.065.012.098l.002.018.002.013.011.077.002.012.004.035.011.066.002.013.006.038.002.013.009.05.002.012.009.05.002.011.009.05-.043-.026-.011-.006-.044-.026-.011-.006-.044-.026-.01-.006-.033-.019-.011-.006-.059-.033-.031-.017-.011-.006-.068-.037-.011-.006-.016-.008c-.029-.015-.059-.03-.088-.045l-.011-.006-.007-.003c-.033-.016-.066-.033-.099-.049l-.006-.003-.006-.003c-.036-.017-.071-.034-.107-.051-2.415-1.129-4.944-.82-5.65.689-.706 1.51.68 3.648 3.095 4.777.074.035.149.068.223.1l.003.002.002.001c.034.014.067.028.101.042l.026.011c.025.01.051.021.078.031l.04.016.067.025.057.021.012.005.013.004.012.005.012.004.004.002.056.02.012.004.012.004.012.004.012.004.012.005-.053.029-.002.001-.011.006-.035.02-.052.031-.011.006-.033.019c-.027.016-.055.032-.081.048l-.019.012c-.029.017-.059.036-.088.054l-.012.008c-.03.019-.061.039-.092.059l-.004.003-.005.003c-.032.022-.066.044-.098.066l-.005.004c-.033.022-.066.044-.098.067-2.185 1.528-3.183 3.872-2.228 5.238.954 1.365 3.499 1.234 5.684-.293.032-.022.065-.045.096-.068l.006-.004c.033-.023.065-.047.096-.07l.004-.003.003-.003c.03-.023.059-.045.088-.067l.011-.009c.027-.021.054-.043.081-.064l.018-.014c.025-.02.049-.039.073-.059l.03-.025.009-.008.046-.039.031-.026.01-.009.002-.002.035-.031.009-.008V60.85l.002.071.001.044.003.084.001.028c.002.035.003.072.005.108v.006c.004.081.01.162.017.244.23 2.656 1.762 4.692 3.422 4.548 1.66-.143 2.819-2.413 2.589-5.068-.003-.039-.007-.079-.011-.118l-.002-.006v-.007c-.004-.037-.007-.073-.011-.11l-.002-.007-.002-.013c-.003-.033-.007-.065-.012-.098l-.001-.018-.002-.013-.011-.076-.002-.013-.005-.035-.01-.066-.002-.013-.006-.037-.002-.013-.009-.05-.002-.012-.009-.049-.002-.013-.009-.05c.231.14.474.269.728.389 2.415 1.129 4.944.82 5.65-.689.705-1.509-.681-3.647-3.096-4.776-.255-.119-.51-.223-.765-.31l.053-.029.002-.001.011-.006.035-.02.053-.031.011-.006.032-.019c.027-.016.055-.032.082-.048l.018-.012c.029-.018.059-.036.088-.055l.012-.008c.031-.019.062-.039.093-.059l.003-.003.005-.003c.033-.021.066-.044.099-.066l.004-.003c.033-.022.066-.044.098-.067 2.185-1.527 3.182-3.872 2.229-5.238l-.005-.002c-.954-1.365-3.499-1.234-5.684.293-.032.022-.064.045-.096.068l-.005.004c-.032.023-.064.047-.096.071l-.004.003-.003.003-.087.066-.011.009c-.027.021-.054.042-.081.064l-.019.014c-.024.02-.048.039-.072.059l-.029.025-.01.008-.047.039-.031.027-.009.008-.002.002-.036.03-.009.008V49.601l-.002-.071-.001-.044c0-.028 0-.056-.001-.084l-.002-.028c-.002-.036-.003-.073-.005-.109v-.005c-.004-.081-.009-.162-.017-.244-.229-2.656-1.761-4.691-3.421-4.547-1.385.12-2.422 1.72-2.593 3.789h1.204c.12-1.442.704-2.522 1.496-2.59h-.001c.996-.086 1.943 1.459 2.116 3.45.111 1.293-.13 2.456-.586 3.137h1.341c.345-.654.979-1.353 1.813-1.936 1.638-1.146 3.431-1.41 4.004-.59zm-10.826 11.244zm-3.452-4.939zm-20.351 42.96c-.346 4.194-4.028 7.312-8.223 6.965-4.195-.347-7.313-4.029-6.966-8.223.347-4.195 4.029-7.313 8.223-6.966 3.058.253 5.544 2.279 6.532 4.984h2.286c-1.063-3.846-4.429-6.804-8.637-7.153-5.393-.447-10.127 3.563-10.572 8.956-.448 5.392 3.562 10.125 8.955 10.572 5.393.446 10.127-3.563 10.573-8.956v.001c.098-1.183-.018-2.335-.318-3.417h-2.286c.367 1.004.527 2.102.433 3.237zm3.255.269c-.126 1.528-.563 2.955-1.242 4.227.683 1.42 1.777 2.372 3.075 2.48 2.397.198 4.581-2.555 4.879-6.151.298-3.595-1.404-6.671-3.801-6.868-1.298-.108-2.533.65-3.441 1.94.46 1.365.657 2.844.53 4.372zm-2.682 6.301c-1.935 2.192-4.728 3.582-7.8 3.682-.89 1.302-1.167 2.727-.611 3.905 1.027 2.175 4.504 2.69 7.766 1.15 3.262-1.54 5.074-4.551 4.048-6.726-.556-1.178-1.831-1.868-3.403-2.01v-.001zm-10.317 3.473c-3.015-.604-5.541-2.434-7.089-4.914-1.573-.119-2.945.352-3.687 1.423-1.37 1.976-.077 5.245 2.887 7.3 2.965 2.056 6.479 2.12 7.849.143.742-1.071.703-2.521.039-3.952h.001zm-8.168-7.197c-.461-1.365-.657-2.844-.53-4.372s.563-2.956 1.242-4.227c-.683-1.42-1.777-2.372-3.075-2.479-2.397-.198-4.581 2.555-4.879 6.15-.297 3.595 1.404 6.671 3.801 6.868 1.298.107 2.533-.65 3.441-1.94zm2.152-10.673c1.935-2.191 4.728-3.582 7.8-3.682.891-1.302 1.168-2.726.612-3.905-1.026-2.175-4.503-2.69-7.765-1.15-3.262 1.54-5.075 4.551-4.048 6.726.556 1.178 1.832 1.868 3.402 2.01l-.001.001zm10.318-3.473c3.015.604 5.541 2.434 7.088 4.914 1.573.119 2.945-.352 3.687-1.423 1.37-1.977.077-5.245-2.887-7.301-2.965-2.055-6.479-2.12-7.849-.143-.743 1.071-.703 2.521-.04 3.952l.001.001z" onclick="top.selectObj('3')" fill="#fff5fd05"/></svg>