<svg xmlns:xlink="http://www.w3.org/1999/xlink" xmlns="http://www.w3.org/2000/svg" width="500" height="500" viewBox="0 0 260 260" 
version="1.1" shape-rendering="geometricPrecision" image-rendering="optimizeQuality" fill-rule="evenodd" clip-rule="evenodd">
<g transform="scale(0.001)"><rect onclick="top.selectObj('0')" id="area_F0_0" width="260000" height="260000" fill="transparent"></rect>
    <g onclick="top.selectObj('1')" id="area_F1_0" fill="#ffffff10">
        <path d="M65000 24298c4823,-5040 10682,-1081 10455,4234 -267,6267 
        -5076,11427 -10455,14495 -5379,-3067 -10188,-8227 -10455,-14495 -226,-5315 5632,-9274 10455,-4234z"></path>
        <path d="M0 89298c4823,-5040 10682,-1081 10455,4234 -267,6267 -5076,11427 -10455,14495 -5379,-3067 -10188,-8227 -10455,-14495 -226,
        -5315 5632,-9274 10455,-4234z"></path>
        <path d="M65000 154298c4823,-5040 10682,-1081 10455,4234 -267,6267 -5076,11427 -10455,14495 -5379,-3067 -10188,-8227 -10455,-14495 
        -226,-5315 5632,-9274 10455,-4234z"></path>
        <path d="M0 219298c4823,-5040 10682,-1081 10455,4234 -267,6267 -5076,11427 -10455,14495 -5379,-3067 -10188,-8227 -10455,-14495 
        -226,-5315 5632,-9274 10455,-4234z"></path>
        <path d="M195000 24298c4823,-5040 10682,-1081 10455,4234 -267,6267 -5076,11427 -10455,14495 -5379,-3067 -10188,-8227 -10455,-14495 
        -226,-5315 5632,-9274 10455,-4234z"></path>
        <path d="M130000 89298c4823,-5040 10682,-1081 10455,4234 -267,6267 -5076,11427 -10455,14495 
        -5379,-3067 -10188,-8227 -10455,-14495 -226,-5315 5632,-9274 10455,-4234z"></path>
        <path d="M195000 154298c4823,-5040 10682,-1081 10455,4234 -267,6267 -5076,11427 -10455,14495 -5379,-3067 -10188,-8227 -10455,-14495 
        -226,-5315 5632,-9274 10455,-4234z"></path>
        <path d="M130000 219298c4823,-5040 10682,-1081 10455,4234 -267,6267 -5076,11427 -10455,14495 
        -5379,-3067 -10188,-8227 -10455,-14495 -226,-5315 5632,-9274 10455,-4234z"></path>
        <path d="M260000 89298c4823,-5040 10682,-1081 10455,4234 -267,6267 -5076,11427 -10455,14495 -5379,-3067 -10188,-8227 -10455,-14495 
        -226,-5315 5632,-9274 10455,-4234z"></path>
        <path d="M260000 219298c4823,-5040 10682,-1081 10455,4234 -267,6267 -5076,11427 -10455,14495 -5379,-3067 -10188,-8227 -10455,-14495 
        -226,-5315 5632,-9274 10455,-4234z"></path>
    </g>
    <g onclick="top.selectObj('1')" id="area_F2_0" fill="#ffffff10">
        <path d="M65000 40545c4454,-2819 7016,-5650 8198,-10306 1070,-4217 -1559,-6960 -4697,-5914 -1166,389 -2369,1456 -3501,2927 -1131,-1471 
        -2335,-2538 -3501,-2927 -3137,-1047 -5767,1697 -4696,5914 1181,4656 3744,7487 8198,10306z"></path>
        <path d="M0 105545c4454,-2819 7016,-5650 8198,-10306 1070,-4217 -1559,-6960 -4697,-5914 -1166,389 -2369,1456 -3501,2927 -1131,-1471 
        -2335,-2538 -3501,-2927 -3137,-1047 -5767,1697 -4696,5914 1181,4656 3744,7487 8198,10306z"></path>
        <path d="M65000 170545c4454,-2819 7016,-5650 8198,-10306 1070,-4217 -1559,-6960 -4697,-5914 -1166,389 -2369,1456 -3501,2927 -1131,-1471 
        -2335,-2538 -3501,-2927 -3137,-1047 -5767,1697 -4696,5914 1181,4656 3744,7487 8198,10306z"></path>
        <path d="M0 235545c4454,-2819 7016,-5650 8198,-10306 1070,-4217 -1559,-6960 -4697,-5914 -1166,389 -2369,1456 -3501,2927 -1131,-1471 
        -2335,-2538 -3501,-2927 -3137,-1047 -5767,1697 -4696,5914 1181,4656 3744,7487 8198,10306z"></path>
        <path d="M195000 40545c4454,-2819 7016,-5650 8198,-10306 1070,-4217 -1559,-6960 -4697,-5914 -1166,389 -2369,1456 -3501,2927 -1131,-1471 
        -2335,-2538 -3501,-2927 -3137,-1047 -5767,1697 -4696,5914 1181,4656 3744,7487 8198,10306z"></path>
        <path d="M130000 105545c4454,-2819 7016,-5650 8198,-10306 1070,-4217 -1559,-6960 -4697,-5914 -1166,389 -2369,1456 -3501,2927 -1131,-1471 
        -2335,-2538 -3501,-2927 -3137,-1047 -5767,1697 -4696,5914 1181,4656 3744,7487 8198,10306z"></path>
        <path d="M195000 170545c4454,-2819 7016,-5650 8198,-10306 1070,-4217 -1559,-6960 -4697,-5914 -1166,389 -2369,1456 -3501,2927 -1131,-1471 
        -2335,-2538 -3501,-2927 -3137,-1047 -5767,1697 -4696,5914 1181,4656 3744,7487 8198,10306z"></path>
        <path d="M130000 235545c4454,-2819 7016,-5650 8198,-10306 1070,-4217 -1559,-6960 -4697,-5914 -1166,389 -2369,1456 -3501,2927 -1131,-1471 
        -2335,-2538 -3501,-2927 -3137,-1047 -5767,1697 -4696,5914 1181,4656 3744,7487 8198,10306z"></path>
        <path d="M260000 105545c4454,-2819 7016,-5650 8198,-10306 1070,-4217 -1559,-6960 -4697,-5914 -1166,389 -2369,1456 -3501,2927 -1131,-1471 
        -2335,-2538 -3501,-2927 -3137,-1047 -5767,1697 -4696,5914 1181,4656 3744,7487 8198,10306z"></path>
        <path d="M260000 235545c4454,-2819 7016,-5650 8198,-10306 1070,-4217 -1559,-6960 -4697,-5914 -1166,389 -2369,1456 -3501,2927 -1131,-1471 
        -2335,-2538 -3501,-2927 -3137,-1047 -5767,1697 -4696,5914 1181,4656 3744,7487 8198,10306z"></path>
    </g>
</g>
</svg>