<svg id="Camada_1" data-name="Camada 1" xmlns="http://www.w3.org/2000/svg" viewBox="0 0 667.62 113.65"><defs><style>.cls-1{fill:#ff96ad;}.cls-2{fill:#fecfdf;}.cls-3{fill:#e93b82;}.cls-4{fill:#370c35;}.cls-5{fill:#fbbedf;}.cls-6{fill:#fba3cd;}</style></defs><g id="Web_site" data-name="Web site"><ellipse id="color-three" class="cls-1" cx="631.5" cy="59.5" rx="20.5" ry="14.5" transform="translate(263.35 577.35) rotate(-60)"/><ellipse id="color-one" class="cls-2" cx="273.05" cy="59.88" rx="20.5" ry="14.5" transform="translate(83.79 267.11) rotate(-60)"/><circle id="color-two" class="cls-3" cx="354.62" cy="67.2" r="20.5"/><path id="w" class="cls-4" d="M233.47,75.71A28.53,28.53,0,0,1,231.21,87a28.85,28.85,0,0,1-15.43,15.43,28.39,28.39,0,0,1-11.29,2.26,28.76,28.76,0,0,1-10.34-1.89,27.73,27.73,0,0,1-8.93-5.52,27.65,27.65,0,0,1-9,5.52,29.09,29.09,0,0,1-10.38,1.89,28.39,28.39,0,0,1-11.29-2.26A28.85,28.85,0,0,1,139.16,87a28.53,28.53,0,0,1-2.26-11.29V11.18a4.47,4.47,0,0,1,4.47-4.47h10.42a4.46,4.46,0,0,1,4.45,4.46V75.71a9.91,9.91,0,0,0,.74,3.81,9.45,9.45,0,0,0,2.06,3.1,9.7,9.7,0,0,0,13.68,0,9.27,9.27,0,0,0,2.05-3.1,9.73,9.73,0,0,0,.75-3.81V11a4.27,4.27,0,0,1,4.26-4.27h10.6a4.49,4.49,0,0,1,4.48,4.48V75.71a9.73,9.73,0,0,0,.74,3.81,9.42,9.42,0,0,0,2.05,3.1,9.7,9.7,0,0,0,13.68,0,9.85,9.85,0,0,0,2.09-3.1,9.4,9.4,0,0,0,.77-3.81V11.11a4.4,4.4,0,0,1,4.4-4.4H229a4.49,4.49,0,0,1,4.5,4.5Z" transform="translate(-0.88 0.7)"/><path id="e" class="cls-4" d="M276.53,85.69a10.8,10.8,0,0,0,2.15.44c.72.06,1.44.1,2.16.1a18.29,18.29,0,0,0,5.19-.74,19,19,0,0,0,4.68-2.13A17.41,17.41,0,0,0,294.62,80l0,0a4.69,4.69,0,0,1,6.87-.24L308,86.26a4.52,4.52,0,0,1,.22,6.18A35.39,35.39,0,0,1,305,95.66a37.68,37.68,0,0,1-7.21,4.92,36.15,36.15,0,0,1-8.16,3.07,37.22,37.22,0,0,1-8.79,1,36.47,36.47,0,0,1-26-10.71,37.07,37.07,0,0,1-7.91-12A39.43,39.43,0,0,1,244,66.62,40.75,40.75,0,0,1,246.88,51a35.28,35.28,0,0,1,19.64-19.81,37.24,37.24,0,0,1,14.32-2.76,36.25,36.25,0,0,1,8.83,1.08,37,37,0,0,1,8.18,3.1,37.51,37.51,0,0,1,7.25,4.95,36.65,36.65,0,0,1,3.53,3.52,4.54,4.54,0,0,1,.06,5.87ZM286,47.75a10.83,10.83,0,0,0-2.53-.61,24,24,0,0,0-2.59-.13,18.39,18.39,0,0,0-7.11,1.38,17.06,17.06,0,0,0-5.8,3.94,18.5,18.5,0,0,0-3.87,6.17,22.13,22.13,0,0,0-1.41,8.12c0,.67,0,1.44.1,2.29s.18,1.72.33,2.59.35,1.72.58,2.53a9.19,9.19,0,0,0,.87,2.16Z" transform="translate(-0.88 0.7)"/><path id="b" class="cls-4" d="M392.5,66.62a40.22,40.22,0,0,1-2.9,15.5,36.89,36.89,0,0,1-7.88,12A35.41,35.41,0,0,1,370,101.93a37.48,37.48,0,0,1-14.39,2.76A36.47,36.47,0,0,1,329.59,94a37.07,37.07,0,0,1-7.91-12,39.43,39.43,0,0,1-2.9-15.33V7.6a5.13,5.13,0,0,1,5.13-5.13h8.24a5.09,5.09,0,0,1,5.09,5.09v28.6a16.65,16.65,0,0,1,3.61-3.37,21.12,21.12,0,0,1,4.58-2.43,30,30,0,0,1,5.09-1.44,26.76,26.76,0,0,1,5.12-.51A36.45,36.45,0,0,1,370,31.27a36,36,0,0,1,11.69,8,38.08,38.08,0,0,1,7.88,12.1A39.36,39.36,0,0,1,392.5,66.62Zm-18.53,0a20.84,20.84,0,0,0-1.45-7.79,19.63,19.63,0,0,0-3.94-6.23,18.26,18.26,0,0,0-5.83-4.11A17.32,17.32,0,0,0,355.64,47a15.8,15.8,0,0,0-7.11,1.65A19.61,19.61,0,0,0,342.7,53a20.46,20.46,0,0,0-3.91,6.27,19.56,19.56,0,0,0-1.41,7.31,20.94,20.94,0,0,0,1.41,7.75,19.23,19.23,0,0,0,3.91,6.2,18.55,18.55,0,0,0,5.83,4.14,17.39,17.39,0,0,0,14.22,0,18.66,18.66,0,0,0,5.83-4.14,19.83,19.83,0,0,0,3.94-6.2A20.55,20.55,0,0,0,374,66.62Z" transform="translate(-0.88 0.7)"/><path id="s" class="cls-4" d="M480.91,103.34h-33.1a9,9,0,0,1-8.95-9V93.15A8.14,8.14,0,0,1,447,85h33.54a5,5,0,0,0,4.12-2,4.35,4.35,0,0,0,.83-2.62,2.52,2.52,0,0,0-1.35-2.56,7.92,7.92,0,0,0-3.23-.61H461.77a22.21,22.21,0,0,1-9-1.81,23.05,23.05,0,0,1-12.16-12.27,23.32,23.32,0,0,1,0-17.92,22.76,22.76,0,0,1,21.12-13.95h26.81A10.45,10.45,0,0,1,499,41.76h0a7.87,7.87,0,0,1-7.87,7.88H462.1a5,5,0,0,0-3.73,1.51,4.41,4.41,0,0,0-1.18,3.07,4.59,4.59,0,0,0,1.35,3.33,4.31,4.31,0,0,0,3.23,1.39h19.14a24.76,24.76,0,0,1,8.89,1.58,22.67,22.67,0,0,1,7.28,4.41,20.76,20.76,0,0,1,6.74,15.5A22,22,0,0,1,502,89.36a23.86,23.86,0,0,1-4.92,7.28,22.61,22.61,0,0,1-7.28,4.92A22.37,22.37,0,0,1,480.91,103.34Z" transform="translate(-0.88 0.7)"/><path id="i" class="cls-4" d="M535.29,11.56a11.79,11.79,0,0,1-1,4.79,12.31,12.31,0,0,1-2.66,3.87,13,13,0,0,1-3.94,2.63,12.34,12.34,0,0,1-9.64,0,12.4,12.4,0,0,1-3.91-2.63,12.57,12.57,0,0,1-2.63-3.87,11.79,11.79,0,0,1-1-4.79,11.87,11.87,0,0,1,1-4.75,12.63,12.63,0,0,1,2.63-3.91A12.38,12.38,0,0,1,518.07.28a12.34,12.34,0,0,1,9.64,0,13,13,0,0,1,3.94,2.62,12.37,12.37,0,0,1,2.66,3.91A11.88,11.88,0,0,1,535.29,11.56ZM526,103.34h-6.2a6.16,6.16,0,0,1-6.17-6.16V37.34a6.17,6.17,0,0,1,6.17-6.17H526a6.16,6.16,0,0,1,6.16,6.17V97.18A6.16,6.16,0,0,1,526,103.34Z" transform="translate(-0.88 0.7)"/><path id="t" class="cls-4" d="M582.32,103.34a31.41,31.41,0,0,1-12.53-2.52A32.57,32.57,0,0,1,552.57,83.6a31.41,31.41,0,0,1-2.52-12.53V51a1.4,1.4,0,0,0-1.4-1.39h-6.18a1.4,1.4,0,0,1-1.39-1.39V32.47a1.16,1.16,0,0,1,1.16-1.16h6.41a1.4,1.4,0,0,0,1.4-1.39V3.86a1.39,1.39,0,0,1,1.39-1.39H567a1.39,1.39,0,0,1,1.39,1.39V29.92a1.4,1.4,0,0,0,1.4,1.39H589a7.29,7.29,0,0,1,7.29,7.29v3.78A7.26,7.26,0,0,1,589,49.64H569.77a1.4,1.4,0,0,0-1.4,1.39v20a13.78,13.78,0,0,0,4,9.83,14.14,14.14,0,0,0,4.44,3A13.6,13.6,0,0,0,582.32,85h8.61a5.34,5.34,0,0,1,5.34,5.34v6.42a6.57,6.57,0,0,1-6.57,6.57Z" transform="translate(-0.88 0.7)"/><path id="e-2" data-name="e" class="cls-4" d="M635.29,85.69a11,11,0,0,0,2.15.44c.72.06,1.44.1,2.16.1a18.24,18.24,0,0,0,5.19-.74,19,19,0,0,0,4.68-2.13A17.41,17.41,0,0,0,653.38,80l0,0a4.67,4.67,0,0,1,6.86-.24l6.53,6.55a4.52,4.52,0,0,1,.21,6.18,35.39,35.39,0,0,1-3.26,3.22,37.68,37.68,0,0,1-7.21,4.92,36.25,36.25,0,0,1-8.15,3.07,37.37,37.37,0,0,1-8.8,1,36.43,36.43,0,0,1-26-10.71,36.94,36.94,0,0,1-7.92-12,39.61,39.61,0,0,1-2.9-15.33A40.94,40.94,0,0,1,605.64,51a35.36,35.36,0,0,1,19.64-19.81,37.24,37.24,0,0,1,14.32-2.76,36.25,36.25,0,0,1,8.83,1.08,37.27,37.27,0,0,1,8.19,3.1,37.75,37.75,0,0,1,7.24,4.95,36.65,36.65,0,0,1,3.53,3.52,4.53,4.53,0,0,1,.06,5.87Zm9.43-37.94a10.75,10.75,0,0,0-2.52-.61,24.33,24.33,0,0,0-2.6-.13,18.39,18.39,0,0,0-7.11,1.38,17,17,0,0,0-5.79,3.94,18.68,18.68,0,0,0-3.88,6.17,22.13,22.13,0,0,0-1.41,8.12c0,.67,0,1.44.1,2.29s.18,1.72.34,2.59a24,24,0,0,0,.57,2.53,9.19,9.19,0,0,0,.87,2.16Z" transform="translate(-0.88 0.7)"/></g><g id="MY"><path id="heart" class="cls-3" d="M95.8,32.8C94.08,21,85,11.39,73.87,9.74a31,31,0,0,0-6.67,0,25.5,25.5,0,0,0-14.31,6.93l-1.2,1.15-.8-.8a25.87,25.87,0,0,0-12.27-6.84,28.2,28.2,0,0,0-9-.42c-9,1.38-16.72,7.73-20.31,16.78a26.17,26.17,0,0,0-1.86,10A39.27,39.27,0,0,0,10.8,52.31c1.57,3.7,4.57,8,5.19,9.1a27.66,27.66,0,0,0,3.4,4.1C26.48,73,35.83,78.85,46.94,82.81l2.38.84,9.42,4A99.09,99.09,0,0,0,74.49,77.23c6-4.91,10.87-10.46,13.36-15.18.83-1.54,3.16-5.86,4.89-10A42.58,42.58,0,0,0,95.8,40.71,37.32,37.32,0,0,0,95.8,32.8Z" transform="translate(-0.88 0.7)"/><g id="Hug"><path class="cls-1" d="M89.29,35.83a4.34,4.34,0,0,0-1-3.8c.82-2.4-1.92-4.82-4-3.37a25.51,25.51,0,0,1-7.09,3.42,2.2,2.2,0,0,1-2.49-.94c-1.18-1.56-1.39-5.54-1.16-7.43.53-4.19-4.64-5-5.42-1.58C66.06,31.4,64.59,41.64,54.4,49.3,45,56.39,29.12,58.18,21.07,54.2a1.54,1.54,0,0,0-2.13,1.89c6.87,20.13,34,12.69,47.06,5.62,11.17-6,23.16-15.29,23.07-21.11a6,6,0,0,0,.22-4.77Z" transform="translate(-0.88 0.7)"/><path class="cls-5" d="M84.41,41.21a.92.92,0,0,1-.34-1.77c1.7-.69,3.86-2.11,4.33-3.85a.92.92,0,0,1,1.13-.65.91.91,0,0,1,.65,1.12c-.81,3-4.36,4.65-5.42,5.08a1,1,0,0,1-.35.07Z" transform="translate(-0.88 0.7)"/><path class="cls-5" d="M85.65,44.7a.92.92,0,0,1-.92-.92.91.91,0,0,1,.62-.87,5.35,5.35,0,0,0,2.9-2.71.92.92,0,0,1,1.69.72l0,.08a7.25,7.25,0,0,1-4,3.65,1.35,1.35,0,0,1-.29.05Z" transform="translate(-0.88 0.7)"/><path class="cls-5" d="M82.67,37.34a.92.92,0,0,1-.92-.92.94.94,0,0,1,.51-.83c.23-.11.47-.23.73-.34a8.89,8.89,0,0,0,4.54-3.67.92.92,0,0,1,1.25-.35.91.91,0,0,1,.36,1.25,10.74,10.74,0,0,1-5.37,4.43l-.69.33a1,1,0,0,1-.41.1Z" transform="translate(-0.88 0.7)"/><path class="cls-2" d="M83.13,54.2c-8,4-23.92,2.18-33.33-4.89C39.62,41.65,38.15,31.41,36,22.13c-.78-3.41-5.94-2.61-5.42,1.59.24,1.88,0,5.86-1.16,7.42a2.18,2.18,0,0,1-2.49.94,25.57,25.57,0,0,1-7.08-3.41c-2.09-1.45-4.83,1-4,3.36a4.34,4.34,0,0,0-.95,3.8,6,6,0,0,0,.21,4.77C15,46.42,27,55.68,38.21,61.71c13.07,7.07,40.18,14.52,47.06-5.62a1.55,1.55,0,0,0-2.14-1.89Z" transform="translate(-0.88 0.7)"/><path class="cls-6" d="M18.56,44.7a1.57,1.57,0,0,1-.3-.05,7.23,7.23,0,0,1-4-3.65.92.92,0,1,1,1.61-.87.25.25,0,0,1,0,.07,5.41,5.41,0,0,0,2.9,2.71.92.92,0,0,1-.29,1.79Z" transform="translate(-0.88 0.7)"/><path class="cls-6" d="M19.79,41.21a1,1,0,0,1-.34-.07c-1.07-.43-4.61-2.07-5.42-5.08a.91.91,0,0,1,.65-1.12.92.92,0,0,1,1.13.65c.46,1.74,2.62,3.16,4.33,3.85a.92.92,0,0,1-.34,1.77Z" transform="translate(-0.88 0.7)"/><path class="cls-6" d="M21.54,37.34a1,1,0,0,1-.41-.1l-.69-.33a10.7,10.7,0,0,1-5.37-4.43.92.92,0,0,1,1.6-.9h0a8.91,8.91,0,0,0,4.55,3.67l.73.34a.92.92,0,0,1,.41,1.23.9.9,0,0,1-.82.52Z" transform="translate(-0.88 0.7)"/></g><g id="my-2" data-name="my"><path id="y" class="cls-4" d="M85,60.8a4.45,4.45,0,0,0-3.14,2.82C79.46,68.77,74.25,75,67.76,80.39c-2.81,2.33-7.48,5.7-7.92,5.7a59.3,59.3,0,0,1-7.24-2C40.67,80.06,30.23,73,23.48,64.36c-1.32-1.69-1.65-2-2.57-2.4a4.28,4.28,0,0,0-5.12,1.25,4.36,4.36,0,0,0-.49,4.46,30.43,30.43,0,0,0,3.52,4.53A71,71,0,0,0,47.26,91.33l2.46.92L46.77,93.7A167.93,167.93,0,0,1,20.6,103.76c-2.55.73-3.28.77-5.15.28-3.95-1.06-6-3.45-6-7a8.72,8.72,0,0,1,5-7.94,5.12,5.12,0,0,1,2.37-.3,5.46,5.46,0,0,1,2.38.31,2.48,2.48,0,0,1,.88.5c.09.29-.55,1.06-1.61,1.91a4.27,4.27,0,0,0-1.83,3.56,3.86,3.86,0,0,0,1.25,3,3.9,3.9,0,0,0,3,1.24c1.5,0,2.43-.53,4.3-2.37a13.07,13.07,0,0,0,3.15-4.39,7.61,7.61,0,0,0-1.84-8.77,13.41,13.41,0,0,0-9-3.7c-7.91-.49-15,5.64-16.44,14.22a19.06,19.06,0,0,0,.2,6.48,14.42,14.42,0,0,0,4.09,7.24A18.21,18.21,0,0,0,17.57,113c2.13,0,2.51-.06,6.62-1.29,21.29-6.38,39-15.6,51.41-26.68,6.13-5.5,11.14-11.7,13.68-17,.84-1.72,1-2.41.91-3.38a4.25,4.25,0,0,0-3.11-3.76A3.59,3.59,0,0,0,85,60.8Z" transform="translate(-0.88 0.7)"/><path id="m" class="cls-4" d="M27.33,3.25c-10,1.54-18.62,8.61-22.62,18.69A29.1,29.1,0,0,0,2.63,33.09,43.8,43.8,0,0,0,6.39,50.68c1.74,4.11,2.53,5.2,4.08,5.76a5.07,5.07,0,0,0,3.42-.18,4.62,4.62,0,0,0,2-2,3.27,3.27,0,0,0,.33-1.86c0-1.15,0-1.2-.91-3a36.13,36.13,0,0,1-4-16.71,19.61,19.61,0,0,1,1-6.32,21.79,21.79,0,0,1,5.48-8.89c4-4,8.15-5.79,13.21-5.81a18.35,18.35,0,0,1,8.6,2,19.31,19.31,0,0,1,5.36,3.81c1.87,1.87,2.74,3.19,6.37,9.77.53,1,.64,1.1.78.9s1.05-1.82,2.13-3.74c2.26-4,3.11-5.28,4.67-6.84A19.65,19.65,0,0,1,71.2,11.7c5.69-.53,10.92,1.55,15.26,6.06a21.84,21.84,0,0,1,6.23,15.46,36.47,36.47,0,0,1-3.34,14.64c-.44,1-.94,2.07-1.11,2.48a4.32,4.32,0,0,0,2.06,5.47,3.1,3.1,0,0,0,1.87.37c2.53,0,3.46-1,5.47-5.79a47.12,47.12,0,0,0,3.41-12.64,40.42,40.42,0,0,0,0-8.8C99.14,15.75,89,5.11,76.63,3.27a34.16,34.16,0,0,0-7.43,0A28.31,28.31,0,0,0,53.27,11l-1.34,1.28L51,11.34A28.86,28.86,0,0,0,37.37,3.72,31.7,31.7,0,0,0,27.33,3.25Z" transform="translate(-0.88 0.7)"/></g></g></svg>