<?xml version="1.0" encoding="utf-8"?>
<!-- Generator: Adobe Illustrator 25.3.1, SVG Export Plug-In . SVG Version: 6.00 Build 0)  -->
<svg version="1.1" id="Camada_1" xmlns="http://www.w3.org/2000/svg" xmlns:xlink="http://www.w3.org/1999/xlink" x="0px" y="0px"
	 viewBox="0 0 787 214" style="enable-background:new 0 0 787 214;" xml:space="preserve">
<style type="text/css">
	.st0{display:none;}
	.st1{display:inline;}
	.st2{fill:none;stroke:#000000;stroke-width:15;stroke-linecap:round;stroke-miterlimit:10;}
	.st3{display:inline;fill:none;stroke:#000000;stroke-width:15;stroke-linecap:round;stroke-miterlimit:10;}
	.st4{fill:#1D101D;}
	.st5{fill:#E93B82;}
	.st6{fill:#CC3573;}
</style>
<image style="display:none;overflow:visible;opacity:0.63;" width="960" height="1280" xlink:href="../../../photo_2021-10-18_15-10-50.jpg"  transform="matrix(0.7656 0 0 0.7656 -145 -368)">
</image>
<g id="MY" class="st0">
	<g id="Y" class="st1">
		<path id="line" class="st2" d="M54,121c27.1,36,71,43,71,43"/>
		<path class="st2" d="M57,172c0,0,13.8-9.8,1.7-16.5c-1.2-0.6-2.4-1.1-3.7-1.5c-25.5-6.7-38.9,36.1-6.5,41.5
			c0.8,0.1,1.5,0.2,2.3,0.2h0.9c1.4,0,2.8-0.2,4.1-0.6c97.2-28,114.6-75.7,114.6-75.7"/>
	</g>
	<path id="M" class="st3" d="M181.4,96.7c5.2-10.2,8.4-21.3,8.4-33.2c0-23.2-18.8-44.7-42-44.7c-15.2,0-29.2,8.2-36.6,21.4
		C103.8,27,89.8,18.8,74.6,18.8c-23.2,0-42,21.5-42,44.7c0,12.2,3.4,23.6,8.8,34"/>
</g>
<g id="Web_site">
	<path id="w" class="st4" d="M324,133.9c0,4-0.8,7.8-2.3,11.3c-1.5,3.5-3.6,6.6-6.2,9.2c-2.6,2.6-5.7,4.7-9.2,6.2
		c-3.5,1.5-7.3,2.3-11.3,2.3c-3.6,0-7-0.6-10.3-1.9c-3.3-1.3-6.3-3.1-8.9-5.5c-2.7,2.4-5.6,4.3-9,5.5c-3.3,1.3-6.8,1.9-10.4,1.9
		c-4,0-7.8-0.8-11.3-2.3c-3.5-1.5-6.6-3.6-9.2-6.2c-2.6-2.6-4.7-5.7-6.2-9.2c-1.5-3.5-2.3-7.3-2.3-11.3V69.4c0-2.5,2-4.5,4.5-4.5
		h10.4c2.5,0,4.5,2,4.5,4.5v64.5c0,1.3,0.2,2.6,0.7,3.8c0.5,1.2,1.2,2.2,2.1,3.1c0.9,0.9,1.9,1.6,3.1,2.1c1.2,0.5,2.4,0.7,3.8,0.7
		c1.3,0,2.6-0.2,3.8-0.7c1.2-0.5,2.2-1.2,3.1-2.1c0.9-0.9,1.6-1.9,2.1-3.1c0.5-1.2,0.7-2.5,0.7-3.8V69.2c0-2.4,1.9-4.3,4.3-4.3h10.6
		c2.5,0,4.5,2,4.5,4.5v64.5c0,1.3,0.2,2.6,0.7,3.8c0.5,1.2,1.2,2.2,2.1,3.1c0.9,0.9,1.9,1.6,3.1,2.1c1.2,0.5,2.4,0.7,3.8,0.7
		s2.6-0.2,3.8-0.7c1.2-0.5,2.2-1.2,3.1-2.1c0.9-0.9,1.6-1.9,2.1-3.1c0.5-1.2,0.8-2.5,0.8-3.8V69.3c0-2.4,2-4.4,4.4-4.4h10.4
		c2.5,0,4.5,2,4.5,4.5V133.9z"/>
	<path id="e_1_" class="st4" d="M367,143.9c0.7,0.2,1.4,0.4,2.2,0.4c0.7,0.1,1.4,0.1,2.2,0.1c1.8,0,3.5-0.2,5.2-0.7
		c1.7-0.5,3.2-1.2,4.7-2.1c1.5-0.9,2.8-2,3.9-3.4c0,0,0,0,0,0c1.8-2.1,4.8-2.3,6.8-0.4l6.6,6.7c1.7,1.7,1.8,4.4,0.2,6.2
		c-1,1.1-2.1,2.2-3.2,3.2c-2.2,1.9-4.6,3.6-7.2,4.9c-2.6,1.3-5.3,2.4-8.2,3.1c-2.9,0.7-5.8,1-8.8,1c-5.1,0-9.8-0.9-14.3-2.8
		c-4.5-1.9-8.4-4.5-11.7-7.9c-3.3-3.4-6-7.4-7.9-12c-1.9-4.6-2.9-9.8-2.9-15.3c0-5.7,1-10.9,2.9-15.6c1.9-4.7,4.6-8.7,7.9-12.1
		c3.3-3.3,7.3-5.9,11.7-7.7c4.5-1.8,9.2-2.8,14.3-2.8c3,0,6,0.4,8.8,1.1c2.9,0.7,5.6,1.8,8.2,3.1c2.6,1.3,5,3,7.2,5
		c1.2,1.1,2.4,2.2,3.5,3.5c1.5,1.7,1.6,4.2,0.1,5.9L367,143.9z M376.5,106c-0.9-0.3-1.7-0.5-2.5-0.6c-0.8-0.1-1.7-0.1-2.6-0.1
		c-2.5,0-4.9,0.5-7.1,1.4c-2.2,0.9-4.2,2.2-5.8,3.9c-1.6,1.7-2.9,3.8-3.9,6.2c-0.9,2.4-1.4,5.1-1.4,8.1c0,0.7,0,1.4,0.1,2.3
		c0.1,0.9,0.2,1.7,0.3,2.6c0.2,0.9,0.3,1.7,0.6,2.5c0.2,0.8,0.5,1.5,0.9,2.2L376.5,106z"/>
	<path id="b" class="st4" d="M483,124.8c0,5.7-1,10.8-2.9,15.5c-1.9,4.7-4.6,8.7-7.9,12c-3.3,3.3-7.2,5.9-11.7,7.8
		c-4.5,1.8-9.3,2.8-14.4,2.8c-5.1,0-9.8-0.9-14.3-2.8c-4.5-1.9-8.4-4.5-11.7-7.9c-3.3-3.4-6-7.4-7.9-12c-1.9-4.6-2.9-9.8-2.9-15.3
		v-59c0-2.8,2.3-5.1,5.1-5.1h8.2c2.8,0,5.1,2.3,5.1,5.1v28.6c1-1.3,2.2-2.4,3.6-3.4c1.4-1,2.9-1.8,4.6-2.4c1.6-0.6,3.3-1.1,5.1-1.4
		c1.8-0.3,3.5-0.5,5.1-0.5c5.1,0,9.9,1,14.4,2.9c4.5,1.9,8.4,4.6,11.7,8c3.3,3.4,6,7.4,7.9,12.1C482.1,114.2,483,119.3,483,124.8z
		 M464.5,124.8c0-2.8-0.5-5.4-1.4-7.8c-1-2.4-2.3-4.5-3.9-6.2c-1.7-1.8-3.6-3.1-5.8-4.1c-2.2-1-4.6-1.5-7.1-1.5
		c-2.5,0-4.9,0.6-7.1,1.7c-2.2,1.1-4.2,2.6-5.8,4.4c-1.7,1.8-3,3.9-3.9,6.3c-0.9,2.4-1.4,4.8-1.4,7.3c0,2.8,0.5,5.4,1.4,7.7
		c0.9,2.4,2.2,4.4,3.9,6.2c1.7,1.8,3.6,3.1,5.8,4.1c2.2,1,4.6,1.5,7.1,1.5c2.5,0,4.9-0.5,7.1-1.5c2.2-1,4.2-2.4,5.8-4.1
		c1.7-1.8,3-3.8,3.9-6.2C464,130.2,464.5,127.6,464.5,124.8z"/>
	<path id="s" class="st4" d="M571.4,161.5h-33.1c-4.9,0-9-4-9-9v-1.2c0-4.5,3.6-8.1,8.1-8.1l33.5,0c1.6,0,3.3-0.6,4.2-2
		c0.6-0.8,0.8-1.6,0.8-2.6c0-1.3-0.5-2.2-1.3-2.6c-0.9-0.4-2-0.6-3.2-0.6h-19.1c-3.2,0-6.2-0.6-9-1.8c-2.8-1.2-5.2-2.9-7.3-5
		c-2.1-2.1-3.7-4.5-4.9-7.3c-1.2-2.8-1.8-5.8-1.8-9c0-3.2,0.6-6.2,1.8-9c1.2-2.8,2.8-5.2,4.9-7.3c2.1-2.1,4.5-3.7,7.3-4.9
		c2.8-1.2,5.8-1.8,9-1.8h26.8c5.8,0,10.5,4.7,10.5,10.5v0c0,4.4-3.5,7.9-7.9,7.9l-28.9,0c-1.6,0-3.3,0.6-4.2,2
		c-0.5,0.8-0.8,1.6-0.8,2.6c0,1.3,0.4,2.4,1.3,3.3c0.9,0.9,2,1.4,3.2,1.4h19.1c3.1,0,6.1,0.5,8.9,1.6c2.8,1.1,5.2,2.5,7.3,4.4
		c2.1,1.9,3.7,4.2,4.9,6.8c1.2,2.7,1.8,5.5,1.8,8.7c0,3.2-0.6,6.2-1.8,8.9c-1.2,2.8-2.9,5.2-4.9,7.3c-2.1,2.1-4.5,3.7-7.3,4.9
		C577.5,161,574.6,161.5,571.4,161.5z"/>
	<path id="i" class="st4" d="M625.8,69.8c0,1.7-0.3,3.3-1,4.8c-0.7,1.5-1.5,2.8-2.7,3.9c-1.1,1.1-2.4,2-3.9,2.6
		c-1.5,0.7-3.1,1-4.8,1c-1.7,0-3.3-0.3-4.8-1c-1.5-0.7-2.8-1.5-3.9-2.6c-1.1-1.1-2-2.4-2.6-3.9c-0.7-1.5-1-3.1-1-4.8
		c0-1.7,0.3-3.2,1-4.8c0.7-1.5,1.5-2.8,2.6-3.9c1.1-1.1,2.4-2,3.9-2.6c1.5-0.7,3.1-1,4.8-1c1.7,0,3.3,0.3,4.8,1
		c1.5,0.7,2.8,1.5,3.9,2.6c1.1,1.1,2,2.4,2.7,3.9C625.5,66.5,625.8,68.1,625.8,69.8z M616.5,161.5h-6.2c-3.4,0-6.2-2.8-6.2-6.2V95.5
		c0-3.4,2.8-6.2,6.2-6.2h6.2c3.4,0,6.2,2.8,6.2,6.2v59.8C622.6,158.8,619.9,161.5,616.5,161.5z"/>
	<path id="t" class="st4" d="M672.8,161.5c-4.4,0-8.6-0.8-12.5-2.5c-3.9-1.7-7.3-4-10.3-6.9c-2.9-2.9-5.3-6.4-6.9-10.3
		c-1.7-3.9-2.5-8.1-2.5-12.5v-20c0-0.8-0.6-1.4-1.4-1.4H633c-0.8,0-1.4-0.6-1.4-1.4V90.7c0-0.6,0.5-1.2,1.2-1.2h6.4
		c0.8,0,1.4-0.6,1.4-1.4V62.1c0-0.8,0.6-1.4,1.4-1.4h15.5c0.8,0,1.4,0.6,1.4,1.4v26.1c0,0.8,0.6,1.4,1.4,1.4h19.2
		c4,0,7.3,3.3,7.3,7.3v3.8c0,4-3.3,7.3-7.3,7.3h-19.2c-0.8,0-1.4,0.6-1.4,1.4v20c0,1.9,0.4,3.7,1.1,5.4c0.7,1.7,1.7,3.2,3,4.4
		c1.3,1.3,2.7,2.3,4.4,3c1.7,0.7,3.5,1.1,5.5,1.1h8.6c2.9,0,5.3,2.4,5.3,5.3v6.4c0,3.6-2.9,6.6-6.6,6.6H672.8z"/>
	<path id="e" class="st4" d="M725.8,143.9c0.7,0.2,1.4,0.4,2.2,0.4c0.7,0.1,1.4,0.1,2.2,0.1c1.8,0,3.5-0.2,5.2-0.7
		c1.7-0.5,3.2-1.2,4.7-2.1c1.5-0.9,2.8-2,3.9-3.4c0,0,0,0,0,0c1.8-2.1,4.8-2.3,6.8-0.4l6.6,6.7c1.7,1.7,1.8,4.4,0.2,6.2
		c-1,1.1-2.1,2.2-3.2,3.2c-2.2,1.9-4.6,3.6-7.2,4.9c-2.6,1.3-5.3,2.4-8.2,3.1c-2.9,0.7-5.8,1-8.8,1c-5.1,0-9.8-0.9-14.3-2.8
		c-4.5-1.9-8.4-4.5-11.7-7.9c-3.3-3.4-6-7.4-7.9-12c-1.9-4.6-2.9-9.8-2.9-15.3c0-5.7,1-10.9,2.9-15.6c1.9-4.7,4.6-8.7,7.9-12.1
		c3.3-3.3,7.3-5.9,11.7-7.7c4.5-1.8,9.2-2.8,14.3-2.8c3,0,6,0.4,8.8,1.1c2.9,0.7,5.6,1.8,8.2,3.1c2.6,1.3,5,3,7.2,5
		c1.2,1.1,2.4,2.2,3.5,3.5c1.5,1.7,1.6,4.2,0.1,5.9L725.8,143.9z M735.2,106c-0.9-0.3-1.7-0.5-2.5-0.6c-0.8-0.1-1.7-0.1-2.6-0.1
		c-2.5,0-4.9,0.5-7.1,1.4c-2.2,0.9-4.2,2.2-5.8,3.9c-1.6,1.7-2.9,3.8-3.9,6.2c-0.9,2.4-1.4,5.1-1.4,8.1c0,0.7,0,1.4,0.1,2.3
		c0.1,0.9,0.2,1.7,0.3,2.6c0.2,0.9,0.3,1.7,0.6,2.5c0.2,0.8,0.5,1.5,0.9,2.2L735.2,106z"/>
</g>
<g id="MY_1_">
	<path id="heart" class="st5" d="M185.8,72.7c-2.6-17.7-16.1-31.9-32.7-34.4c-2.5-0.4-7.4-0.4-9.9,0c-8.2,1.2-15.4,4.7-21.3,10.3
		l-1.8,1.7l-1.2-1.2c-4.8-4.9-11.5-8.6-18.3-10.2c-3.9-0.9-9.8-1.2-13.4-0.6c-13.4,2.1-24.9,11.5-30.3,25c-1.9,4.7-2.8,9.5-2.8,14.9
		c0,7.9,1.6,15.5,5,23.5c2.3,5.5,6.8,11.9,7.7,13.6c0.6,1.1,2.5,3.4,5.1,6.1c10.6,11.1,24.5,19.9,41,25.8l3.6,1.2l14,5.9
		c8.8-4.8,16.7-10,23.5-15.5c8.9-7.3,16.2-15.6,19.9-22.6c1.2-2.3,4.7-8.7,7.3-14.9c2.4-5.6,3.8-11,4.6-16.9
		C186.2,81.1,186.2,75.5,185.8,72.7z"/>
	<path class="st6" d="M66.9,72.4c0-15.6,11.7-30.1,26.8-32.1c-1.4-0.2-2.8-0.3-4.2-0.3C72.7,40,55.4,64.2,55,81c-1,41,52,67,52,67
		s21,9,28,4C104,146,66.9,107.9,66.9,72.4z"/>
	<g id="my">
		<path id="y" class="st4" d="M169.7,114.4c-2.1,0.5-3.6,1.8-4.7,4.2c-3.5,7.7-11.3,16.9-21,25c-4.2,3.5-11.1,8.5-11.8,8.5
			c-0.8,0-7.1-1.7-10.8-3c-17.8-6-33.3-16.6-43.4-29.4c-2-2.5-2.5-3-3.8-3.6c-2.7-1.2-5.9-0.4-7.6,1.9c-1.5,1.9-1.8,4.6-0.7,6.6
			c0.6,1.2,2.6,3.8,5.2,6.8c10.9,12.4,25.3,22,42.4,28.5l3.7,1.4l-4.4,2.2c-11.8,5.8-25.9,11.2-39,15c-3.8,1.1-4.9,1.1-7.7,0.4
			c-5.9-1.6-8.9-5.1-8.9-10.4c0-5.1,3.1-10.1,7.4-11.8c1-0.4,1.5-0.5,3.5-0.5c2,0,2.6,0.1,3.5,0.5c0.7,0.3,1.2,0.6,1.3,0.7
			c0.1,0.4-0.8,1.6-2.4,2.8c-1.9,1.5-2.7,3.2-2.7,5.3c0,1.9,0.5,3.2,1.9,4.5c1.4,1.3,2.6,1.9,4.5,1.8c2.2,0,3.6-0.8,6.4-3.5
			c2.3-2.3,4-4.6,4.7-6.5c1.9-5,1-9.3-2.7-13.1c-3.4-3.3-7.8-5.2-13.4-5.5c-11.8-0.7-22.4,8.4-24.5,21.2c-0.5,2.8-0.3,7.4,0.3,9.6
			c1.2,4.7,3,7.7,6.1,10.8c4.5,4.4,11.6,7.3,18.2,7.3c3.2,0,3.7-0.1,9.9-1.9c31.7-9.5,58.1-23.2,76.6-39.7
			c9.1-8.2,16.6-17.4,20.4-25.3c1.2-2.6,1.5-3.6,1.4-5c-0.3-2.7-2-4.8-4.6-5.6C171.6,114.1,170.9,114.1,169.7,114.4z"/>
		<path id="m" class="st4" d="M83.8,28.6c-15,2.3-27.7,12.8-33.7,27.8C48,61.8,47,67.1,47,73.1c0,8.9,1.8,17.3,5.6,26.2
			c2.6,6.1,3.8,7.7,6.1,8.6c1.4,0.5,3.8,0.4,5.1-0.3c1.2-0.6,2.3-1.8,2.9-3c0.4-0.9,0.5-1.3,0.5-2.8c0-1.7,0-1.8-1.4-4.5
			c-4.2-8.6-6.2-16.9-6-24.9c0.1-3.7,0.5-6.2,1.6-9.4c1.7-5.2,4.3-9.4,8.2-13.3c5.9-5.9,12.1-8.6,19.7-8.6c4.8,0,8.6,0.9,12.8,2.9
			c3.1,1.5,5.6,3.3,8,5.7c2.8,2.8,4.1,4.8,9.5,14.6c0.8,1.5,1,1.6,1.2,1.3c0.1-0.2,1.6-2.7,3.2-5.6c3.4-6,4.6-7.9,6.9-10.2
			c5-5,11.3-8,18.4-8.7c8.5-0.8,16.3,2.3,22.7,9c6.1,6.4,9.3,14.3,9.3,23c0,7.1-1.8,14.9-5,21.8c-0.7,1.4-1.4,3.1-1.7,3.7
			c-1.3,3,0.1,6.6,3.1,8.2c0.9,0.5,1.3,0.6,2.8,0.6c3.8,0,5.2-1.5,8.2-8.6c2.6-6.2,4.2-12.3,5.1-18.8c0.5-3.7,0.5-9.9,0-13.1
			c-2.8-19.7-17.9-35.5-36.4-38.3c-2.8-0.4-8.2-0.4-11.1,0c-9.1,1.3-17.2,5.2-23.7,11.5l-2,1.9l-1.3-1.3
			c-5.3-5.4-12.8-9.6-20.4-11.4C94.4,28.3,87.9,28,83.8,28.6z"/>
	</g>
</g>
</svg>
