<svg id="Camada_1" data-name="Camada 1" xmlns="http://www.w3.org/2000/svg" viewBox="0 0 831 449.2"><defs><style>.cls-1{fill:#d4145a;stroke:#d4145a;stroke-miterlimit:10;stroke-width:4px;}.cls-2{fill:#311544;}</style></defs><g id="My"><path id="M" class="cls-1" d="M407.73,69.14q-14.21-1.22-27.38,8.71A213.85,213.85,0,0,0,353.79,102L213.06,250.39V248q-.41-10.12-.81-25.14t-.81-31.22q-.41-16.22-.8-30.42t-.81-32q-.41-19.06,4.46-27.78a21.13,21.13,0,0,1,15-10.75c.53,0,1.68-.74,3.44-2.23s2.64-2.63,2.64-3.44c0-.27-.27-.41-.81-.41h-43.8q-8.93,0-21.29.2t-25.55,1.62A147.05,147.05,0,0,0,119.4,91Q108,94.27,101,100.34a19.8,19.8,0,0,0-7.1,15.81,30.64,30.64,0,0,0,1.62,9.73,34.63,34.63,0,0,0,5.07,8.92,74.09,74.09,0,0,0,8.72,9.94,53.52,53.52,0,0,0,8.11,6.69,5.46,5.46,0,0,0,3.85-.61c1.22-.67,1.82-1.28,1.82-1.82,0-.27-.27-.67-.81-1.22a22.07,22.07,0,0,1-9.32-9.32,26.92,26.92,0,0,1-3.65-13.39,20.86,20.86,0,0,1,3.65-12.16q5.67-8.11,18.45-12.17A127.37,127.37,0,0,1,160,95.47q15.83-1.22,30-1.21h22.3l-.4.41a53.24,53.24,0,0,0-24.94,15,97.38,97.38,0,0,0-17.24,25.55q-11,23.92-21.7,46a475.18,475.18,0,0,1-23.73,43,276.49,276.49,0,0,1-31.63,41.16,112.52,112.52,0,0,1-24.54,20.68,51.49,51.49,0,0,1-27.37,8.11q-14.21,0-23.72-9.74T7.46,255.64q0-3.24-2.43-3.24c-1.36,0-2,1.89-2,5.67a83,83,0,0,0,.81,11.56,49.42,49.42,0,0,0,2.84,11.15q5.67,14.61,17,21.7a44.41,44.41,0,0,0,23.92,7.1q13.78,0,29.4-7.7a87.41,87.41,0,0,0,25.76-18.66,184.49,184.49,0,0,0,26.56-36.69q12-21.28,21.9-43.59t17.65-42.18q7.69-19.86,13.79-32.44a74.29,74.29,0,0,1,11-16.22A96.29,96.29,0,0,1,207,99.53a50.74,50.74,0,0,0-6.89,12.57,46.73,46.73,0,0,0-2.84,17q0,20.67-.21,37.1t-.61,35.28q-.42,18.85-1.22,35.89l-.41,9.73q-.41,23.52-10.95,36.9c-.27.28,0,.68.81,1.22a4.28,4.28,0,0,0,2.43.81c.81,0,1.22-.13,1.22-.4q1.62-2,6.49-7.3c3.21-3.48,133-139,135-141.08q-10.53,17.43-18.64,34.44t-13.38,28q-4.87,10.54-12.37,25.74a317.1,317.1,0,0,0-13.39,31.23q-5.88,16-5.88,28.59,0,13,7.1,18.45a25.56,25.56,0,0,0,16,5.48,33.62,33.62,0,0,0,8.11-1,48.9,48.9,0,0,0,7.71-2.63,75.93,75.93,0,0,0,22.1-15.41,197.7,197.7,0,0,0,18.05-20.07q7.69-9.93,10.95-14a7.64,7.64,0,0,0,.59-.85,6.75,6.75,0,0,0,1-3.61q0-2.43-1.62-2.43c-.55,0-1.22.54-2,1.62l-.06.06q-1.71,1.75-9.67,12.3a176.75,176.75,0,0,1-18.66,20.89A66.53,66.53,0,0,1,314,293.38a69.27,69.27,0,0,1-11.76,6.08,16.87,16.87,0,0,1-6.89,1.63q-7.71,0-7.71-11.36,0-9.74,4.87-25.34t12.78-34.68q7.9-19.05,17.24-38.92T341,153.08q9.14-17.85,16.43-31t10.95-19.26A112.66,112.66,0,0,1,384.2,82.52q8.52-8.52,19.07-8.11a7,7,0,0,0,3.65-2,4.48,4.48,0,0,0,1.62-2.84A1.22,1.22,0,0,0,407.73,69.14Z" transform="translate(-1 -0.28)"/><path class="cls-1" d="M613.39,199.59c-7.39,2.41-113.63.13-113.63.13a15.31,15.31,0,0,0-8.11,2.23,17.16,17.16,0,0,0-5.68,5.48q-3.64,5.26-10.34,19.06T461,258.32q-7.92,18-15.62,36.49t-14.19,33.86a426,426,0,0,1-22.31,45.22,202.68,202.68,0,0,1-29.4,39.74,122.91,122.91,0,0,1-39.95,27.77,74.61,74.61,0,0,1-30.42,6.08,66.65,66.65,0,0,1-29.8-7.1,44.89,44.89,0,0,1-21.29-21.7,39.24,39.24,0,0,1-3.24-11.15A84.61,84.61,0,0,1,254,396v-4.46a20,20,0,0,1,.81-5.88c.55-1.76,1.9-2.63,4.06-2.63a.71.71,0,0,1,.81.81,29.52,29.52,0,0,1-.41,4.86,34.61,34.61,0,0,0-.41,5.28q0,18.65,12,28.38t29.8,9.74a72.89,72.89,0,0,0,15-1.62A83.36,83.36,0,0,0,330.23,426a131.07,131.07,0,0,0,44.41-31,233.3,233.3,0,0,0,33.06-45.21,568.6,568.6,0,0,0,25.55-51.09q6.48-15.42,11.56-30t9.13-26.36q-4.06,5.69-10.55,13.79t-13,15.61a148,148,0,0,1-11.35,12,113.62,113.62,0,0,1-21.7,16.42,46.81,46.81,0,0,1-23.73,6.69,13.69,13.69,0,0,1-6.89-1.62q-2.83-1.62-2.84-6.09,0-5.67,3.05-13.38t6.69-15.41q3.64-7.69,6.08-12.57,4.88-9.31,9.33-18.65t7.71-15.81c2.16-4.06,3.24-6.76,3.24-8.12,0-2.16-1.56-2.16-4.66,0s-6,4.33-8.72,6.49A255,255,0,0,0,368,241.68q-6.6,7.86-11.16,13.55a6.75,6.75,0,0,0,1-3.61q0-2.43-1.62-2.43c-.55,0-1.22.54-2,1.62l-.06.06q5-7,11.41-15.07,7.71-9.72,15.82-18.65,7.69-8.1,15.82-15.81t20.68-7.71q8.5,0,8.51,6.49,0,5.69-4.86,13-2.85,4.47-8.93,15T400.2,251q-6.29,12.38-10.75,22.92T385,289.33q0,5.69,5.68,5.68,4.45,0,10.95-4.66A133.3,133.3,0,0,0,415,279.2a186.54,186.54,0,0,0,21.7-25.14q9.93-13.78,17.24-26.36c.81-1.35,2.22-3.78,4.26-7.3s4.18-6.89,6.48-10.14,4.12-5.13,5.48-5.67a74.84,74.84,0,0,0,8.11-4.46,38.13,38.13,0,0,1,12.16-4.87,44.87,44.87,0,0,1,8.52-1.21c106.05,0,114.44-1.88,114.44-1.88S620.78,197.17,613.39,199.59Z" transform="translate(-1 -0.28)"/></g><g id="Web_Site" data-name="Web Site"><g id="site"><path class="cls-2" d="M529.72,312.28a42.78,42.78,0,0,1-10.43-1.38,27.05,27.05,0,0,1-9.75-4.53,14.86,14.86,0,0,1-5.63-8.65,8.39,8.39,0,0,1-.28-2.47,24.11,24.11,0,0,1,1.79-8.51q1.79-4.67,4.53-6.59a1.58,1.58,0,0,1,1.78,0c.46.37.5.74.14,1.1-.19.55-.46,1.24-.82,2.06a11.85,11.85,0,0,0-.82,2.61,17.7,17.7,0,0,0,3,12.63,23.71,23.71,0,0,0,4,4.12,42.3,42.3,0,0,0,4.52,3.29,13.3,13.3,0,0,0,4.67,1.51,36.27,36.27,0,0,0,5.5.41,32.62,32.62,0,0,0,8.51-1.1,10.9,10.9,0,0,0,6-3.56,15.29,15.29,0,0,0,3.57-9.89,20.85,20.85,0,0,0-2.2-8.79,42.41,42.41,0,0,0-6.86-9.88,73.92,73.92,0,0,1-5.77-7.14,20.58,20.58,0,0,1-3.57-8.24,9.6,9.6,0,0,1-.41-1.64,9.19,9.19,0,0,1-.14-1.65q-3.57,5.22-7.27,9.75t-6.46,7.82q-1.1,1.65-1.92,1.65c-.36,0-.54-.37-.54-1.1a8.45,8.45,0,0,1,2.19-5.21q2.19-2.47,4.94-6.18l4.39-5.91q4.67-6.85,7-10.84a54,54,0,0,1,5.07-7.28,22.88,22.88,0,0,1,7.56-5.76,21.32,21.32,0,0,1,9.47-2.2,30.37,30.37,0,0,1,10.57,1.78q4.8,1.8,5.08,8.93a19.6,19.6,0,0,1-1.24,6.72c-.82,2.3-1.69,4.44-2.6,6.46A4.81,4.81,0,0,1,565,257c-1,.46-1.51.32-1.51-.41a12.29,12.29,0,0,1,.28-2.47,13,13,0,0,0,.27-2.47,19.46,19.46,0,0,0-1.65-8.24,10.76,10.76,0,0,0-4.12-5.63,10.4,10.4,0,0,0-5.76-1.78,13.16,13.16,0,0,0-8.51,3.43,11.05,11.05,0,0,0-4.12,8.92v1.37a3.14,3.14,0,0,0,.27,1.38q1.1,4.39,6.59,9.88a87.92,87.92,0,0,1,8.51,9.61q5.22,7.14,5.22,14.55a23.5,23.5,0,0,1-4.25,13.6A31.19,31.19,0,0,1,545,308.57,32.1,32.1,0,0,1,529.72,312.28Z" transform="translate(-1 -0.28)"/><path class="cls-2" d="M586.28,308.71a8.54,8.54,0,0,1-4.53-1.1c-1.2-.73-1.78-2.1-1.78-4.12a25.36,25.36,0,0,1,2-9.06q2.07-5.21,4.67-10.43t4-8.52q1.92-3.84,4.81-10c1.92-4.12,3.74-8,5.49-11.8s3-6.36,3.71-7.83q-3.85,4.13-9.2,10.3t-10,11.94c-3.12,3.84-5.49,6.86-7.14,9.06-.55.74-1,1.1-1.38,1.1s-.55-.45-.55-1.37a6.92,6.92,0,0,1,1.38-4.12q5.21-6.58,11.67-14.83t11.66-15.24q5.22-7,6.59-9.19l8.93-1.65q5.89-1.1,8.1-3a2.37,2.37,0,0,1,1.64-.83c.37,0,.6.33.7,1a2.84,2.84,0,0,1-.7,2.05,72.79,72.79,0,0,0-5.76,9.34q-4.11,7.41-8.65,16.34t-8.37,16.06Q599.72,280.15,597,287t-2.75,9.88q0,3.86,3.85,3.85,3.57,0,9.2-4.4a99.14,99.14,0,0,0,11.39-10.57q5.76-6.18,10.16-11.39c.91-1.1,2.06-2.43,3.43-4s2.24-2.51,2.61-2.88a2.72,2.72,0,0,1,.55,1.92,9.73,9.73,0,0,1-1.37,3.71,33.8,33.8,0,0,1-2.2,3.16q-5.77,7.14-12.63,14.69a70.18,70.18,0,0,1-15.1,12.63A33.37,33.37,0,0,1,586.28,308.71ZM634.06,203c-2.57,0-4.4-.83-5.5-2.47a5.57,5.57,0,0,1-1.1-3.57,8.29,8.29,0,0,1,4.12-7.14,11.66,11.66,0,0,1,5.49-1.65c2.75,0,4.67.83,5.77,2.47a5.57,5.57,0,0,1,1.1,3.57c0,2.93-1.47,5.31-4.39,7.14A9.71,9.71,0,0,1,634.06,203Z" transform="translate(-1 -0.28)"/><path class="cls-2" d="M640.64,308.71a9.3,9.3,0,0,1-4.67-1.1q-1.92-1.1-1.92-4.12a25.4,25.4,0,0,1,2.06-9.06c1.38-3.47,2.88-6.95,4.53-10.43s3-6.32,4.12-8.52c.91-1.64,2.15-4.25,3.7-7.82s3.21-7.32,4.95-11.26,3.8-8.65,6.18-14.14q-2.48,2.75-6.46,7.69t-8.51,10.3q-4.53,5.36-8.23,10T631,277.13c-.54.74-1,1.1-1.37,1.1s-.55-.45-.55-1.37a6.92,6.92,0,0,1,1.38-4.12q3.28-4.12,8-10t9.48-12q4.8-6,8.37-10.71a1.55,1.55,0,0,0,.55-1.09,35.69,35.69,0,0,0-8.1,2.06,29.33,29.33,0,0,0-7.28,4,4.71,4.71,0,0,1-1.37.55.48.48,0,0,1-.55-.55,3.18,3.18,0,0,1,1.1-2.2,35.17,35.17,0,0,1,10-7.28,48.2,48.2,0,0,1,10.57-3.43q11-14.82,20.87-37.34,2.19-.27,7.55-3.16a35.85,35.85,0,0,0,8.38-5.9,3.78,3.78,0,0,1,2.19-1.37q1.65,0,0,2.19-1.92,2.21-6.45,8.79t-10,16.06q-5.49,9.48-10.71,19.91h12.08q6.32.27,14.83.55t17.85.27a261.67,261.67,0,0,0,28.42-1.51q13.85-1.5,22.37-6.45,4.67-2.19,8.79-8.65a26.85,26.85,0,0,0,4.39-13.59,38.57,38.57,0,0,0-1.23-8.92,13.55,13.55,0,0,0-4.81-7.83,1.55,1.55,0,0,1-.28-1.1c0-.73.28-1.1.83-1.1a3.94,3.94,0,0,1,2.74,1.38,9.1,9.1,0,0,1,6.73,4.39,16.13,16.13,0,0,1,2.06,8.24,33.44,33.44,0,0,1-1.37,8.78,34.41,34.41,0,0,1-9.2,15.11,55.36,55.36,0,0,1-14.69,10.43q-9.34,4.66-25.53,6.18T705.17,239q-7.42,0-14.14-.14t-12.22-.41q-8.52.83-10.71,3.84-1.65,1.92-4.67,8.24T657,264.91a165.9,165.9,0,0,0-5.91,16.2,73.44,73.44,0,0,0-3,13.59v1.1a4.79,4.79,0,0,0,1.37,3.57,3.92,3.92,0,0,0,2.74,1.38q3.57,0,9.2-4.4A117.67,117.67,0,0,0,673,285.78q6-6.18,10.44-11.39l5.49-7.14c.54.18.82.82.82,1.92a10.78,10.78,0,0,1-1.37,3.84,27.34,27.34,0,0,1-2.2,3.3,152.48,152.48,0,0,1-12.63,14.41,85.24,85.24,0,0,1-15.78,12.77A32.13,32.13,0,0,1,640.64,308.71Z" transform="translate(-1 -0.28)"/><path class="cls-2" d="M699.67,310.08q-11.26,0-15.65-4.39A14.57,14.57,0,0,1,679.63,295a40.13,40.13,0,0,1,4.25-17,164.37,164.37,0,0,1,8.1-15.38,85.12,85.12,0,0,1,11.81-13.73A79.08,79.08,0,0,1,720,236.77q8.79-4.94,17-4.94,7.14,0,9.89,3.43a12.59,12.59,0,0,1,2.75,8.1q0,8.52-5.09,14a39.07,39.07,0,0,1-12.49,8.93,123.26,123.26,0,0,1-14.28,5.62c-2.74.74-5.95,1.47-9.61,2.2a53.43,53.43,0,0,1-10.43,1.1,70.91,70.91,0,0,0-3,9.61,37.56,37.56,0,0,0-1.1,8.51A12.24,12.24,0,0,0,696,301c1.56,2,4.17,3,7.83,3a29.44,29.44,0,0,0,5.22-.55,55.58,55.58,0,0,0,6.59-1.65,56.47,56.47,0,0,0,16.2-8.78A126.8,126.8,0,0,0,746.49,280a144.74,144.74,0,0,0,10.29-11.66,2.63,2.63,0,0,1,.82,1.92q0,1.38-1.92,4.39a109.52,109.52,0,0,1-14.28,15.93,88.68,88.68,0,0,1-19.49,13.86A47.2,47.2,0,0,1,699.67,310.08Zm.28-40.36a48.66,48.66,0,0,0,8.1-.14A42.22,42.22,0,0,0,717,267.8q11.26-3.3,16.33-10.58t5.09-13a10.17,10.17,0,0,0-1.38-5.49,4.8,4.8,0,0,0-4.39-2.19,20.39,20.39,0,0,0-14.28,5.9,64,64,0,0,0-11,13.59A129.9,129.9,0,0,0,700,269.72Z" transform="translate(-1 -0.28)"/></g><g id="web"><path class="cls-2" d="M514.26,171.18a9.07,9.07,0,0,1-6.64-2.77q-2.76-2.76-2.76-9.68a112.14,112.14,0,0,1,1.1-14.38q1.11-8.29,3.05-16.86T513.15,112a51.44,51.44,0,0,0,2.08-6.5,22.24,22.24,0,0,0,.69-4.84q0-2.49-1.38-2.49-10.23-.27-19.77-1.1t-19.22-.83q-6.65,0-13.69.69a103.83,103.83,0,0,0-14.8,2.62,32.61,32.61,0,0,0-10.92,6q-4.83,4-4.84,9t6.08,10q3.6,2.78,8.16,5.67a37.62,37.62,0,0,0,9,4.29c.37.19.41.55.14,1.1s-.6.84-1,.84a52.25,52.25,0,0,1-11.62-4.15,56.92,56.92,0,0,1-9.12-5.53q-9.39-7.47-9.4-15.21,0-10.23,17.69-17.15a58.49,58.49,0,0,1,13-3,121.31,121.31,0,0,1,14.38-.83,221.57,221.57,0,0,1,22.13,1.11q11.06,1.09,20.87,2.21a112.94,112.94,0,0,0,16.73.83,9.32,9.32,0,0,0,3.32-1.94,6.21,6.21,0,0,1,1.66-.83c.56,0,.84.33.84,1a3.47,3.47,0,0,1-.84,2.07,59.72,59.72,0,0,0-5.53,11.21q-3,7.6-5.81,16.86T517.44,141a76.1,76.1,0,0,0-1.79,14.65q0,4.42,1.51,6.09a4.63,4.63,0,0,0,3.46,1.66q3.87,0,8.16-3.6a64.92,64.92,0,0,0,8.57-8.85q4.29-5.25,7.61-10.23t5-7.74a219.13,219.13,0,0,0,10.65-19.22q5.11-10.38,8.71-16.46c2-.36,4.47-.92,7.33-1.66a15.82,15.82,0,0,0,6.5-3,2.27,2.27,0,0,1,1.38-.83c.55,0,.88.33,1,1a2.81,2.81,0,0,1-.69,2.07,52,52,0,0,0-5.26,11.07q-2.76,7.45-5.39,16.45t-4.28,17.7a80.9,80.9,0,0,0-1.67,14.79q0,8.29,6.09,8.3,4.15,0,9.26-3a43.3,43.3,0,0,0,8.44-6.36,142.12,142.12,0,0,0,15.76-19.08,97.89,97.89,0,0,0,10.78-21.57,37.46,37.46,0,0,0,2.22-7.33,35.69,35.69,0,0,0,.55-6A13.32,13.32,0,0,0,620,93.61c-.84-1.57-1.71-2.44-2.63-2.63-.92-.36-1.38-.83-1.38-1.38,0-.37.46-.78,1.38-1.25a5,5,0,0,1,3-.41,17.45,17.45,0,0,1,7.61,4q3.16,2.91,3.17,8.44a26,26,0,0,1-1.93,9.4,105.17,105.17,0,0,1-11.2,21.15,145.8,145.8,0,0,1-16.45,20.33,89.79,89.79,0,0,1-19.09,15.21,53.59,53.59,0,0,1-7.46,3.32,22.24,22.24,0,0,1-7.47,1.38,11.19,11.19,0,0,1-7.6-2.77c-2.13-1.84-3.18-5.06-3.18-9.68a116.46,116.46,0,0,1,1.52-17.14,183.24,183.24,0,0,1,4-19.36q-1.93,3-3.74,6.5t-4,7.05q-6.93,10-14.25,18.81t-12.58,11.89a47.69,47.69,0,0,1-6.91,3.32A18.66,18.66,0,0,1,514.26,171.18Z" transform="translate(-1 -0.28)"/><path class="cls-2" d="M645.61,171.73q-11.33,0-15.76-4.42a14.67,14.67,0,0,1-4.42-10.79,40.43,40.43,0,0,1,4.28-17.14,165.43,165.43,0,0,1,8.16-15.49,86.22,86.22,0,0,1,11.89-13.83A79.56,79.56,0,0,1,666.08,97.9q8.85-5,17.14-5c4.8,0,8.11,1.15,10,3.46a12.66,12.66,0,0,1,2.76,8.15q0,8.58-5.11,14.11a39.73,39.73,0,0,1-12.58,9,125.72,125.72,0,0,1-14.38,5.66q-4.15,1.11-9.68,2.21a53.49,53.49,0,0,1-10.51,1.11,70.52,70.52,0,0,0-3,9.68,37.61,37.61,0,0,0-1.11,8.57,12.29,12.29,0,0,0,2.35,7.75c1.57,2,4.19,3,7.88,3a29.94,29.94,0,0,0,5.26-.55,59.94,59.94,0,0,0,6.63-1.66A56.94,56.94,0,0,0,678,154.59a126.89,126.89,0,0,0,14.79-13.14,142.87,142.87,0,0,0,10.37-11.75,2.66,2.66,0,0,1,.83,1.93c0,.93-.65,2.4-1.93,4.43a110.46,110.46,0,0,1-14.38,16,89.35,89.35,0,0,1-19.64,14A47.52,47.52,0,0,1,645.61,171.73Zm.28-40.65a48.29,48.29,0,0,0,8.16-.14,43,43,0,0,0,9-1.79q11.34-3.33,16.45-10.65t5.12-13.14a10.29,10.29,0,0,0-1.39-5.53,4.82,4.82,0,0,0-4.42-2.21,20.48,20.48,0,0,0-14.38,5.95,63.76,63.76,0,0,0-11.06,13.68A134,134,0,0,0,645.89,131.08Z" transform="translate(-1 -0.28)"/><path class="cls-2" d="M705.9,172a36.09,36.09,0,0,1-8.57-1.25q-5-1.24-5-6.22a14,14,0,0,1,.83-4.42c.55-1.66,1.11-3.14,1.66-4.43q3.87-10.5,8.43-20.32t10.1-22c1.83-4,3.73-8,5.67-11.89L725,89.6a38.23,38.23,0,0,1-19.22-8.16,20.71,20.71,0,0,1-7.88-16.73,31.39,31.39,0,0,1,3.6-14.1,2.37,2.37,0,0,1,1.93-1.11,1.88,1.88,0,0,1,1.66.83,2.31,2.31,0,0,1,0,2.21,30,30,0,0,0-3.59,13.28,16.48,16.48,0,0,0,7.6,14.52,40.84,40.84,0,0,0,17.28,6.49,365.76,365.76,0,0,1,21-33.46,210.6,210.6,0,0,1,24.61-29q5.53-5.25,12.45-10.79a80.4,80.4,0,0,1,14.79-9.4A35.23,35.23,0,0,1,814.85.28a13.88,13.88,0,0,1,7.61,2.21,8.25,8.25,0,0,1,3.73,6.92,16.38,16.38,0,0,1,4.43,6.49A22.57,22.57,0,0,1,832,23.78a33.42,33.42,0,0,1-3,13.55,45.5,45.5,0,0,1-7.73,12.17,125.37,125.37,0,0,1-24.34,20.61,131.75,131.75,0,0,1-30,14.65,104.66,104.66,0,0,1-31.94,5.67Q731.34,99,728,107.16T721.66,122c0,.73.09,1.1.28,1.1a40.19,40.19,0,0,0,4.56-4.29q4.29-4.27,10.78-10.09A89,89,0,0,1,751,98.59q7.2-4.29,13.27-4.29c2,0,3.33.69,3.88,2.08a12.21,12.21,0,0,1,.83,4.56v2.49a75.61,75.61,0,0,1-7.05,22.12,111.25,111.25,0,0,1-14.38,22.54,79,79,0,0,1-19.36,17.28A41.43,41.43,0,0,1,705.9,172Zm4.42-4.7q4.42,0,9.54-3.46a55.07,55.07,0,0,0,7.89-6.22,65.61,65.61,0,0,0,8-9.54,156.89,156.89,0,0,0,9.13-14.24,140.48,140.48,0,0,0,7.47-14.94q3-7.18,3-11.61a5.62,5.62,0,0,0-.55-2.49,2,2,0,0,0-1.94-1.11c-1.66,0-3.83,1-6.5,3a112.77,112.77,0,0,0-8.57,7.33q-4.58,4.29-8.29,8.3c-2.5,2.67-4.3,4.66-5.4,5.94q-3,3.33-7.74,9.68A132.36,132.36,0,0,0,708,150.85q-3.75,6.51-3.74,10.93Q704.24,167.32,710.32,167.31Zm26-80.2a94.72,94.72,0,0,0,29.45-6.64A119.39,119.39,0,0,0,793.56,65a102.16,102.16,0,0,0,21.85-21.85,88.81,88.81,0,0,0,7.46-12.3,29.14,29.14,0,0,0,3.6-13.14,9.93,9.93,0,0,0-2.91-7.33q-2.89-2.89-10.37-2.9-11.88,0-20,4.84a86.77,86.77,0,0,0-16.73,13.41,164.87,164.87,0,0,0-22.54,28.76A247.3,247.3,0,0,0,736.32,87.11Z" transform="translate(-1 -0.28)"/></g></g></svg>