<svg id="Camada_1" data-name="Camada 1" xmlns="http://www.w3.org/2000/svg" viewBox="0 0 385.43 85.58"><defs><style>.cls-1{fill:#370c35;}.cls-2{fill:#e93b82;}.cls-3{fill:#ff96ad;}.cls-4{fill:#fbbedf;}.cls-5{fill:#fecfdf;}.cls-6{fill:#fba3cd;}</style></defs><g id="Web_site" data-name="Web site"><path id="s" class="cls-1" d="M392,83.11H374.35a4.77,4.77,0,0,1-4.76-4.77v-.66a4.33,4.33,0,0,1,4.33-4.33h17.85a2.7,2.7,0,0,0,2.2-1,2.35,2.35,0,0,0,.43-1.4,1.35,1.35,0,0,0-.71-1.36,4.26,4.26,0,0,0-1.72-.32H381.78a11.73,11.73,0,0,1-4.77-1,12.23,12.23,0,0,1-3.87-2.63,12.39,12.39,0,0,1-2.6-3.9,12.27,12.27,0,0,1,2.6-13.41,12.31,12.31,0,0,1,3.87-2.6,12.05,12.05,0,0,1,4.77-.95h14.27a5.56,5.56,0,0,1,5.56,5.57h0a4.19,4.19,0,0,1-4.19,4.19H382a2.68,2.68,0,0,0-2,.8,2.36,2.36,0,0,0-.63,1.64,2.44,2.44,0,0,0,.72,1.77,2.32,2.32,0,0,0,1.72.74H392a13.27,13.27,0,0,1,4.73.84,11.85,11.85,0,0,1,3.87,2.35,11.12,11.12,0,0,1,2.62,3.62,10.9,10.9,0,0,1,1,4.62,11.65,11.65,0,0,1-1,4.76,12.78,12.78,0,0,1-2.62,3.87,12.2,12.2,0,0,1-3.87,2.62A12,12,0,0,1,392,83.11Z" transform="translate(-106.36 -12.99)"/><path id="i" class="cls-1" d="M420.9,34.27a6.17,6.17,0,0,1-.52,2.54A6.3,6.3,0,0,1,419,38.87a6.72,6.72,0,0,1-2.1,1.4,6.59,6.59,0,0,1-5.13,0,6.51,6.51,0,0,1-2.08-1.4,6.76,6.76,0,0,1-1.4-2.06,6.44,6.44,0,0,1,0-5.07,6.54,6.54,0,0,1,3.48-3.48,6.59,6.59,0,0,1,5.13,0,6.89,6.89,0,0,1,2.1,1.4,6.52,6.52,0,0,1,1.93,4.61Zm-5,48.84h-3.3a3.28,3.28,0,0,1-3.28-3.28V48a3.28,3.28,0,0,1,3.28-3.28h3.3A3.28,3.28,0,0,1,419.22,48V79.83A3.28,3.28,0,0,1,415.94,83.11Z" transform="translate(-106.36 -12.99)"/><path id="t" class="cls-1" d="M445.93,83.11a16.64,16.64,0,0,1-6.67-1.35,17.26,17.26,0,0,1-5.46-3.69,17.45,17.45,0,0,1-3.7-5.47,16.77,16.77,0,0,1-1.34-6.67V55.27a.74.74,0,0,0-.74-.74h-3.29a.74.74,0,0,1-.74-.74v-8.4a.62.62,0,0,1,.62-.62H428a.74.74,0,0,0,.74-.74V30.17a.74.74,0,0,1,.74-.74h8.27a.74.74,0,0,1,.74.74V44a.74.74,0,0,0,.74.74h10.22a3.89,3.89,0,0,1,3.89,3.89v2a3.87,3.87,0,0,1-3.87,3.87H439.25a.74.74,0,0,0-.74.74V65.93a7.17,7.17,0,0,0,.58,2.89,7.4,7.4,0,0,0,1.57,2.35A7.48,7.48,0,0,0,443,72.76a7.13,7.13,0,0,0,2.9.59h4.59a2.84,2.84,0,0,1,2.84,2.84v3.42a3.5,3.5,0,0,1-3.5,3.5Z" transform="translate(-106.36 -12.99)"/><path id="e" class="cls-1" d="M474.12,73.71a5.74,5.74,0,0,0,1.15.24c.38,0,.76,0,1.14,0a9.47,9.47,0,0,0,2.77-.4,10,10,0,0,0,2.49-1.12,9.36,9.36,0,0,0,2.08-1.8l0,0a2.49,2.49,0,0,1,3.65-.13L490.89,74a2.41,2.41,0,0,1,.12,3.29A20.08,20.08,0,0,1,489.27,79a19.6,19.6,0,0,1-3.84,2.62,19.38,19.38,0,0,1-4.34,1.63,19.39,19.39,0,0,1-22.75-11.55,21,21,0,0,1-1.54-8.16,21.74,21.74,0,0,1,1.54-8.32A18.83,18.83,0,0,1,468.79,44.7a19.82,19.82,0,0,1,7.62-1.47,18.91,18.91,0,0,1,4.7.58,19.37,19.37,0,0,1,8.21,4.28A18.44,18.44,0,0,1,491.2,50a2.41,2.41,0,0,1,0,3.13Zm5-20.19a6.06,6.06,0,0,0-1.34-.32,12.56,12.56,0,0,0-1.39-.07,9.79,9.79,0,0,0-3.78.73,9,9,0,0,0-3.08,2.1,9.74,9.74,0,0,0-2.06,3.28,11.59,11.59,0,0,0-.76,4.32c0,.36,0,.77.06,1.22a10.86,10.86,0,0,0,.18,1.38,13.36,13.36,0,0,0,.3,1.35,5.22,5.22,0,0,0,.47,1.15Z" transform="translate(-106.36 -12.99)"/><path id="w" class="cls-1" d="M280.29,68.4a15.36,15.36,0,0,1-4.5,10.92,15.49,15.49,0,0,1-4.91,3.3,15.64,15.64,0,0,1-11.51.2,14.91,14.91,0,0,1-4.76-2.94,14.8,14.8,0,0,1-4.76,2.94,15.47,15.47,0,0,1-5.53,1,15.13,15.13,0,0,1-6-1.2,15.42,15.42,0,0,1-4.92-3.3,15.6,15.6,0,0,1-3.3-4.91,15.18,15.18,0,0,1-1.2-6V34.06a2.39,2.39,0,0,1,2.38-2.38h5.54a2.39,2.39,0,0,1,2.38,2.38V68.4a5.28,5.28,0,0,0,.39,2,5.16,5.16,0,0,0,1.09,1.65,5.21,5.21,0,0,0,5.65,1.09A4.91,4.91,0,0,0,248,72.08a5.18,5.18,0,0,0,1.1-1.65,5.28,5.28,0,0,0,.39-2V34a2.27,2.27,0,0,1,2.27-2.27h5.64a2.38,2.38,0,0,1,2.38,2.39V68.4a5.11,5.11,0,0,0,.4,2,5.15,5.15,0,0,0,8.37,1.65,5.21,5.21,0,0,0,1.11-1.65,5,5,0,0,0,.41-2V34a2.35,2.35,0,0,1,2.35-2.35h5.52a2.4,2.4,0,0,1,2.39,2.4Z" transform="translate(-106.36 -12.99)"/><path id="e-2" data-name="e" class="cls-1" d="M303.2,73.71a6,6,0,0,0,1.15.24c.38,0,.77,0,1.15,0a9.35,9.35,0,0,0,2.76-.4,9.8,9.8,0,0,0,2.49-1.12,9.14,9.14,0,0,0,2.08-1.8l0,0a2.5,2.5,0,0,1,3.66-.13L320,74a2.41,2.41,0,0,1,.11,3.29A21.48,21.48,0,0,1,318.36,79a20.21,20.21,0,0,1-3.84,2.62,19.91,19.91,0,0,1-16.64.68,19.23,19.23,0,0,1-6.24-4.2,19.47,19.47,0,0,1-4.21-6.4,21,21,0,0,1-1.55-8.16,21.74,21.74,0,0,1,1.55-8.32A18.83,18.83,0,0,1,297.88,44.7a19.82,19.82,0,0,1,7.62-1.47,19,19,0,0,1,4.7.58,19.79,19.79,0,0,1,4.35,1.64,20,20,0,0,1,3.86,2.64A19.52,19.52,0,0,1,320.29,50a2.42,2.42,0,0,1,0,3.13Zm5-20.19a6.06,6.06,0,0,0-1.34-.32,12.25,12.25,0,0,0-1.38-.07,9.75,9.75,0,0,0-3.78.73,8.92,8.92,0,0,0-3.09,2.1,9.89,9.89,0,0,0-2.06,3.28,11.79,11.79,0,0,0-.75,4.32c0,.36,0,.77.05,1.22s.1.92.18,1.38a13.35,13.35,0,0,0,.31,1.35,4.76,4.76,0,0,0,.46,1.15Z" transform="translate(-106.36 -12.99)"/><path id="b" class="cls-1" d="M364.92,63.56a21.5,21.5,0,0,1-1.54,8.25,19.56,19.56,0,0,1-4.2,6.4A18.72,18.72,0,0,1,353,82.35a19.91,19.91,0,0,1-7.66,1.47,19.47,19.47,0,0,1-7.62-1.5,19.23,19.23,0,0,1-6.24-4.2,19.63,19.63,0,0,1-4.21-6.4,21,21,0,0,1-1.54-8.16V32.16a2.73,2.73,0,0,1,2.73-2.73h4.38a2.71,2.71,0,0,1,2.71,2.71V47.36a9.18,9.18,0,0,1,1.92-1.8,12.1,12.1,0,0,1,2.44-1.29,16.49,16.49,0,0,1,2.71-.77,14.33,14.33,0,0,1,2.72-.27A19.23,19.23,0,0,1,353,44.76,19,19,0,0,1,359.18,49a20.39,20.39,0,0,1,4.2,6.44A21.12,21.12,0,0,1,364.92,63.56Zm-9.86,0a11.08,11.08,0,0,0-.77-4.14,10.51,10.51,0,0,0-2.1-3.31,9.5,9.5,0,0,0-3.1-2.19,9.2,9.2,0,0,0-3.79-.79,8.33,8.33,0,0,0-3.78.88,10.28,10.28,0,0,0-3.1,2.33,10.81,10.81,0,0,0-2.08,3.33,10.47,10.47,0,0,0-.75,3.89,11.15,11.15,0,0,0,.75,4.13,10.23,10.23,0,0,0,2.08,3.3,9.89,9.89,0,0,0,3.1,2.2,9.25,9.25,0,0,0,7.57,0,10,10,0,0,0,3.1-2.2,10.81,10.81,0,0,0,2.1-3.3A11,11,0,0,0,355.06,63.56Z" transform="translate(-106.36 -12.99)"/></g><g id="My_v2" data-name="My v2"><path id="heart" class="cls-2" d="M132.83,13A27.63,27.63,0,0,1,154,23.16a2.46,2.46,0,0,0,3.46.36,3.06,3.06,0,0,0,.36-.36A27.66,27.66,0,0,1,179.08,13c15.74,0,26.46,13.7,26.46,30.6,0,10.11-5.38,26.46-15.92,36.31-15,14-27.76,17.64-32.09,18.51a8,8,0,0,1-3.15,0c-4.33-.86-17.08-4.48-32.09-18.51-10.54-9.85-15.93-26.2-15.93-36.31,0-16.89,10.73-30.6,26.47-30.6Z" transform="translate(-106.36 -12.99)"/><g id="Hug"><path class="cls-3" d="M195,46.63a4.52,4.52,0,0,0-1-4c.87-2.51-2-5-4.19-3.53a26.43,26.43,0,0,1-7.43,3.58,2.28,2.28,0,0,1-2.61-1c-1.25-1.64-1.47-5.81-1.22-7.79.55-4.39-4.87-5.23-5.68-1.66C170.59,42,169,52.73,158.37,60.76c-9.87,7.43-26.52,9.31-35,5.14a1.6,1.6,0,0,0-2.16.73,1.62,1.62,0,0,0-.08,1.24c7.21,21.12,35.64,13.32,49.36,5.9,11.71-6.33,24.29-16,24.2-22.14a6.31,6.31,0,0,0,.22-5Z" transform="translate(-106.36 -12.99)"/><path class="cls-4" d="M189.84,52.27a1,1,0,0,1-.36-1.86c1.79-.72,4.05-2.21,4.54-4a1,1,0,1,1,1.86.5c-.85,3.15-4.56,4.87-5.68,5.32a1.15,1.15,0,0,1-.36.07Z" transform="translate(-106.36 -12.99)"/><path class="cls-4" d="M191.13,55.93a1,1,0,0,1-.3-1.88,5.63,5.63,0,0,0,3-2.83,1,1,0,0,1,1.27-.51,1,1,0,0,1,.51,1.26.59.59,0,0,1,0,.08,7.55,7.55,0,0,1-4.16,3.83,1.06,1.06,0,0,1-.31,0Z" transform="translate(-106.36 -12.99)"/><path class="cls-4" d="M188,48.21a1,1,0,0,1-.43-1.83l.76-.36c1.67-.79,3.57-1.67,4.77-3.84a1,1,0,1,1,1.69.93,11.28,11.28,0,0,1-5.64,4.65l-.72.35a1.08,1.08,0,0,1-.43.1Z" transform="translate(-106.36 -12.99)"/><path class="cls-5" d="M188.5,65.9c-8.45,4.17-25.09,2.29-35-5.14-10.68-8-12.22-18.77-14.45-28.5-.82-3.57-6.24-2.73-5.69,1.66.25,2,0,6.16-1.21,7.79a2.3,2.3,0,0,1-2.61,1,27.19,27.19,0,0,1-7.44-3.58c-2.18-1.52-5,1-4.19,3.53a4.52,4.52,0,0,0-1,4,6.33,6.33,0,0,0,.22,5c-.09,6.1,12.49,15.8,24.2,22.13,13.71,7.42,42.14,15.22,49.36-5.89a1.61,1.61,0,0,0-1-2.06,1.58,1.58,0,0,0-1.24.08Z" transform="translate(-106.36 -12.99)"/><path class="cls-6" d="M120.77,55.93a1.12,1.12,0,0,1-.31,0,7.5,7.5,0,0,1-4.15-3.83,1,1,0,1,1,1.69-.91l0,.08a5.62,5.62,0,0,0,3,2.83,1,1,0,0,1-.3,1.88Z" transform="translate(-106.36 -12.99)"/><path class="cls-6" d="M122.07,52.27a1.1,1.1,0,0,1-.36-.07c-1.12-.45-4.84-2.17-5.68-5.32a1,1,0,1,1,1.86-.5c.49,1.82,2.75,3.31,4.54,4a1,1,0,0,1,.53,1.26,1,1,0,0,1-.89.6Z" transform="translate(-106.36 -12.99)"/><path class="cls-6" d="M123.9,48.21a1,1,0,0,1-.43-.1l-.73-.35a11.27,11.27,0,0,1-5.63-4.65,1,1,0,0,1,.37-1.31,1,1,0,0,1,1.31.38h0A9.44,9.44,0,0,0,123.56,46l.77.36a1,1,0,0,1-.43,1.83Z" transform="translate(-106.36 -12.99)"/></g></g></svg>