<svg id="Camada_1" data-name="Camada 1" xmlns="http://www.w3.org/2000/svg" viewBox="0 0 205.58 969.28"><defs><style>.cls-1{fill:#fff;}</style></defs><path class="cls-1" d="M151.75,118.31c-.4-.19-15.37-7.55-18-8.51a10.38,10.38,0,0,0-3.49-.77,5.92,5.92,0,0,0-5,3c-1.49,2.22-6,7.51-7.42,9.09-.18.21-.43.46-.58.46s-2.45-1-3.15-1.26c-16-7-28.23-23.74-29.9-26.56a1.58,1.58,0,0,1-.25-.59,4.76,4.76,0,0,1,.88-1c.81-.81,1.69-1.87,2.55-2.9.4-.48.81-1,1.21-1.43A16,16,0,0,0,91,83.92l.33-.67a7,7,0,0,0-.2-6.57c-.36-.71-6.67-16-7.34-17.56C82.14,55.26,80,53.46,77,53.46c-.28,0,0,0-1.15,0-1.41.06-9.06,1.06-12.45,3.2-3.58,2.26-9.65,9.47-9.65,22.15,0,11.42,7.24,22.19,10.35,26.29.08.1.22.31.42.61,11.91,17.4,26.76,30.29,41.81,36.3,14.49,5.79,21.35,6.46,25.25,6.46h0a37.7,37.7,0,0,0,4.11-.25l.74-.07c5-.44,16-6.14,18.5-13.09,2-5.48,2.49-11.46,1.18-13.63C155.25,120,153.71,119.26,151.75,118.31Z" transform="translate(0.11 -0.39)"/><path class="cls-1" d="M104.32.39c-55.58,0-100.8,44.88-100.8,100A99.31,99.31,0,0,0,17.34,151L0,202.1a2.64,2.64,0,0,0,.62,2.72,2.67,2.67,0,0,0,1.9.8,2.54,2.54,0,0,0,.81-.13l53.25-16.92a101.42,101.42,0,0,0,47.71,11.9c55.58,0,100.8-44.88,100.8-100S159.9.39,104.32.39Zm0,179.24a79.85,79.85,0,0,1-43.93-13.1,2.66,2.66,0,0,0-1.46-.44,2.45,2.45,0,0,0-.81.13L31.44,174.7l8.61-25.41a2.67,2.67,0,0,0-.37-2.43,78.08,78.08,0,0,1-15.2-46.43c0-43.67,35.82-79.2,79.84-79.2s79.84,35.53,79.84,79.2S148.34,179.63,104.32,179.63Z" transform="translate(0.11 -0.39)"/><path class="cls-1" d="M205.46,452.5V428.78a18,18,0,0,0-18-18h-2.85v21.81a6.15,6.15,0,0,1-4.72,6.07,6.07,6.07,0,0,1-7.45-5.86V401a6.17,6.17,0,0,0-4.72-6.08,6.08,6.08,0,0,0-7.46,5.86v10H121.11v21.81a6.15,6.15,0,0,1-4.72,6.07,6.08,6.08,0,0,1-7.46-5.86V401a6.17,6.17,0,0,0-4.72-6.08,6.07,6.07,0,0,0-7.45,5.86v10h-40v21.81A6.14,6.14,0,0,1,52,438.64a6.07,6.07,0,0,1-7.45-5.86V401a6.17,6.17,0,0,0-4.72-6.08,6.07,6.07,0,0,0-7.45,5.86v10H18.25a18,18,0,0,0-18,18V452.5Z" transform="translate(0.11 -0.39)"/><path class="cls-1" d="M.23,464.67v97.64a18,18,0,0,0,18,18H187.44a18,18,0,0,0,18-18V464.67Zm57.66,83.49H45.05a6.17,6.17,0,0,1-6.08-4.7A6.1,6.1,0,0,1,44.91,536H57.75a6.17,6.17,0,0,1,6.08,4.7A6.1,6.1,0,0,1,57.89,548.16Zm0-26.09H45.05a6.17,6.17,0,0,1-6.08-4.7,6.1,6.1,0,0,1,5.94-7.48H57.75a6.17,6.17,0,0,1,6.08,4.7A6.1,6.1,0,0,1,57.89,522.07Zm0-25.22H45.05a6.17,6.17,0,0,1-6.08-4.7,6.1,6.1,0,0,1,5.94-7.48H57.75a6.17,6.17,0,0,1,6.08,4.71A6.1,6.1,0,0,1,57.89,496.85Zm51.27,51.31H96.31a6.17,6.17,0,0,1-6.08-4.7A6.1,6.1,0,0,1,96.17,536H109a6.17,6.17,0,0,1,6.07,4.7A6.1,6.1,0,0,1,109.16,548.16Zm0-26.09H96.31a6.17,6.17,0,0,1-6.08-4.7,6.1,6.1,0,0,1,5.94-7.48H109a6.17,6.17,0,0,1,6.07,4.7A6.1,6.1,0,0,1,109.16,522.07Zm0-25.22H96.31a6.17,6.17,0,0,1-6.08-4.7,6.1,6.1,0,0,1,5.94-7.48H109a6.17,6.17,0,0,1,6.07,4.71A6.1,6.1,0,0,1,109.16,496.85Zm51.26,51.31H147.57a6.09,6.09,0,1,1-.14-12.18h12.85a6.09,6.09,0,1,1,.14,12.18Zm0-26.09H147.57a6.09,6.09,0,1,1-.14-12.18h12.85a6.09,6.09,0,1,1,.14,12.18Zm0-25.22H147.57a6.09,6.09,0,1,1-.14-12.18h12.85a6.09,6.09,0,1,1,.14,12.18Z" transform="translate(0.11 -0.39)"/><path class="cls-1" d="M133.31,906l-17.19,17.26a19,19,0,0,1-26.37,0L72.55,906,10.79,968a17.91,17.91,0,0,0,7.53,1.7H187.55a17.94,17.94,0,0,0,7.53-1.7Z" transform="translate(0.11 -0.39)"/><path class="cls-1" d="M187.55,824.65H18.32a17.9,17.9,0,0,0-7.53,1.69l66,66.22h0l21.46,21.53a7.22,7.22,0,0,0,9.33,0l21.46-21.53h0l66-66.22A17.94,17.94,0,0,0,187.55,824.65Z" transform="translate(0.11 -0.39)"/><path class="cls-1" d="M2.15,835.07A17.78,17.78,0,0,0,.23,843V951.28a17.78,17.78,0,0,0,1.92,7.93L64,897.14Z" transform="translate(0.11 -0.39)"/><path class="cls-1" d="M203.54,835.07l-61.87,62.07,61.87,62.07a17.78,17.78,0,0,0,1.92-7.93V843A17.78,17.78,0,0,0,203.54,835.07Z" transform="translate(0.11 -0.39)"/></svg>